<svg xmlns="http://www.w3.org/2000/svg" xmlns:xlink="http://www.w3.org/1999/xlink" version="1.1" x="0px" y="0px" viewBox="0 0 488 610" style="enable-background:new 0 0 488 488;" xml:space="preserve"><g><polygon points="155.596,95.485 155.594,95.485 128.258,99.48 131.013,118.334 256.949,99.933 254.194,81.078 155.597,95.485  "/><rect x="135.16" y="116.784" transform="matrix(0.9895 -0.1446 0.1446 0.9895 -18.4553 30.2355)" width="127.273" height="50.618"/><path d="M234.253,205.421c-1.106,1.911-3.554,2.566-5.466,1.459c-1.912-1.106-2.565-3.553-1.46-5.465   c7.147-12.357,20.447-20.033,34.709-20.033c0.23,0,0.457,0.013,0.686,0.017c-0.938-5.115-3.117-9.951-6.349-14.057l-92.872,13.57   c-13.943,7.055-20.727,22.912-16.143,37.943c1.881,6.167,5.594,11.625,10.58,15.637c4.387-4.074,9.671-7.138,15.566-8.936   c6.737-2.055,13.906-2.303,20.733-0.715c2.151,0.5,3.49,2.65,2.99,4.802c-0.501,2.153-2.649,3.49-4.803,2.99   c-5.457-1.269-11.193-1.069-16.587,0.576c-8.195,2.499-14.926,8.039-18.953,15.601c-4.026,7.561-4.868,16.238-2.369,24.433   c2.11,6.92,6.446,12.847,12.327,16.943c6.224-5.759,13.804-10.238,22.444-12.873c6.356-1.938,12.914-2.777,19.492-2.486   c2.207,0.097,3.918,1.964,3.821,4.171c-0.097,2.208-1.97,3.928-4.171,3.821c-5.671-0.244-11.324,0.475-16.809,2.146   c-12.803,3.904-23.318,12.561-29.61,24.373c-6.292,11.813-7.606,25.37-3.702,38.173c3.565,11.689,11.253,21.65,21.646,28.048   c1.881,1.157,2.468,3.621,1.31,5.503c-0.755,1.228-2.067,1.904-3.41,1.904c-0.715,0-1.439-0.192-2.093-0.595   c-2.613-1.608-5.069-3.422-7.37-5.397c-14.511,8.514-21.38,25.819-16.392,42.175c4.125,13.526,15.649,23.356,29.382,25.487v-7.173   c0-6.445,2.218-12.767,6.244-17.799l25.339-31.674c2.896-3.62,4.49-8.166,4.49-12.801v-13.954   c0-14.637,11.908-26.545,26.545-26.545c7.748,0,14.731,3.338,19.588,8.65c3.188-0.841,5.901-3.134,7.177-6.23   c1.643-3.989,0.732-8.539-2.318-11.591c-1.562-1.563-1.562-4.095,0.001-5.657c1.563-1.562,4.096-1.561,5.657,0.001   c5.341,5.343,6.934,13.309,4.057,20.294c-1.885,4.577-5.56,8.167-10.018,10.064c1.538,3.358,2.403,7.086,2.403,11.014v13.954   c0,4.635,1.595,9.182,4.49,12.802l25.338,31.673c4.026,5.032,6.244,11.354,6.244,17.799v16.595   c14.094-5.308,23.563-18.731,23.563-34.205c0-20.172-16.41-36.582-36.582-36.582c-2.209,0-4-1.791-4-4s1.791-4,4-4   c5.978,0,11.68,1.191,16.894,3.334c6.895-8.793,10.67-19.651,10.67-30.898c0-27.631-22.479-50.109-50.109-50.109   c-5.733,0-11.353,0.959-16.703,2.851c-2.08,0.734-4.367-0.354-5.104-2.438c-0.736-2.083,0.355-4.368,2.438-5.104   c6.208-2.194,12.726-3.308,19.369-3.308c9.034,0,17.593,2.074,25.227,5.768c4.432-5.632,6.845-12.56,6.845-19.804   c0-17.685-14.388-32.073-32.072-32.073c-5.639,0-11.184,1.483-16.034,4.289c-1.914,1.107-4.359,0.452-5.466-1.46   c-1.105-1.912-0.452-4.359,1.46-5.465c6.066-3.509,12.996-5.364,20.04-5.364c6.266,0,12.198,1.448,17.485,4.023   c3.607-5.297,5.569-11.606,5.569-18.059c0-17.685-14.388-32.073-32.073-32.073C250.621,189.382,239.975,195.527,234.253,205.421z    M209.35,331.251c-0.746,1.266-2.08,1.971-3.45,1.971c-0.69,0-1.389-0.179-2.026-0.555c-1.903-1.121-2.537-3.573-1.416-5.477   c2.19-3.719,1.933-8.352-0.656-11.803c-2.59-3.453-6.966-4.996-11.146-3.934c-2.143,0.547-4.318-0.75-4.862-2.892   s0.751-4.318,2.892-4.862c7.327-1.858,14.983,0.843,19.517,6.887C212.733,316.631,213.185,324.742,209.35,331.251z    M238.673,274.029c-1.536,0.39-3.087,0.579-4.62,0.579c-5.778,0.001-11.313-2.689-14.896-7.466   c-4.532-6.044-4.983-14.155-1.148-20.664c1.122-1.903,3.573-2.537,5.477-1.416c1.903,1.121,2.537,3.573,1.416,5.477   c-2.19,3.719-1.933,8.352,0.656,11.803c2.589,3.452,6.963,4.993,11.146,3.934c2.146-0.543,4.318,0.751,4.862,2.892   C242.108,271.309,240.813,273.485,238.673,274.029z"/><rect x="154.011" y="26.642" transform="matrix(0.9895 -0.1446 0.1446 0.9895 -5.9467 27.4684)" width="64.017" height="56.015"/><path d="M150.481,88.148l-8.677-59.384c-0.153-1.049,0.116-2.117,0.75-2.968s1.58-1.415,2.63-1.568l71.261-10.413   c1.049-0.156,2.117,0.116,2.968,0.75c0.851,0.634,1.415,1.58,1.568,2.629l8.677,59.384l23.38-3.416L242.347,0H113.723   l13.379,91.564L150.481,88.148z"/><path d="M385.145,469.859c1.168-13.515,2.815-27.157,4.896-40.549c2.37-15.271,5.372-30.657,8.921-45.734   c4.371-18.564,1.804-38.116-7.228-55.053c-7.688-14.416-11.802-31.248-11.938-48.728c-9.692,1.104-18.317,6.168-24.083,14.28   c-6.557,9.223-8.186,20.642-4.468,31.329l11.984,34.454c4.341,12.48,5.438,25.959,3.174,38.98l-11.224,64.533   c-2.379,13.68-14.184,23.609-28.069,23.609c-15.34,0-27.881-12.188-28.463-27.388c-0.002-0.055-0.004-0.11-0.004-0.165   c-0.01-0.312-0.024-0.624-0.024-0.938v-21.026c0-4.636-1.595-9.182-4.49-12.801l-25.339-31.674   c-4.026-5.033-6.243-11.354-6.243-17.799v-13.954c0-10.226-8.319-18.545-18.546-18.545c-10.226,0-18.545,8.319-18.545,18.545   v13.954c0,6.444-2.218,12.765-6.243,17.799l-25.34,31.674c-2.896,3.619-4.49,8.165-4.49,12.801v21.026   c0,15.71-12.781,28.491-28.491,28.491c-13.886,0-25.69-9.93-28.069-23.609l-11.224-64.533c-2.265-13.021-1.167-26.501,3.175-38.98   l11.983-34.454c3.718-10.688,2.089-22.106-4.468-31.329c-5.766-8.111-14.391-13.176-24.083-14.28   c-0.136,17.48-4.251,34.312-11.938,48.728c-9.031,16.937-11.599,36.488-7.228,55.053c3.549,15.077,6.551,30.464,8.922,45.735   c2.079,13.391,3.727,27.033,4.895,40.548c0.571,6.609-1.626,12.986-6.186,17.956c-0.058,0.063-0.12,0.122-0.179,0.185h295.018   c-0.059-0.063-0.121-0.121-0.179-0.185C386.771,482.846,384.573,476.469,385.145,469.859z"/><path d="M449.485,198.4c-34.023,0-61.703,36.114-61.703,80.503c0,16.492,3.808,32.349,11.01,45.856   c9.947,18.652,12.772,40.192,7.956,60.65c-3.502,14.877-6.464,30.06-8.803,45.128c-2.053,13.214-3.678,26.676-4.83,40.011   c-0.376,4.349,1.084,8.561,4.109,11.859c3.261,3.554,7.992,5.592,12.982,5.592c8.759,0,16.085-6.164,17.043-14.338   c1.384-11.813,4.102-23.472,8.077-34.651c12.571-35.35,35.276-59.501,52.673-73.83V216.06   C477.086,204.659,463.463,198.4,449.485,198.4z"/><path d="M90.056,430.539c-2.34-15.069-5.302-30.252-8.804-45.129c-4.816-20.458-1.991-41.998,7.956-60.65   c7.202-13.508,11.01-29.364,11.01-45.856c0-44.39-27.68-80.503-61.703-80.503c-13.978,0-27.601,6.259-38.515,17.66v149.121   c17.396,14.329,40.102,38.48,52.673,73.83c3.976,11.18,6.693,22.839,8.077,34.651C61.708,481.836,69.034,488,77.793,488   c4.99,0,9.722-2.038,12.982-5.592c3.025-3.299,4.485-7.511,4.109-11.859C93.732,457.214,92.107,443.752,90.056,430.539z"/></g></svg>