<svg xmlns="http://www.w3.org/2000/svg" xmlns:xlink="http://www.w3.org/1999/xlink" version="1.1" x="0px" y="0px" viewBox="0 0 496 620" style="enable-background:new 0 0 496 496;" xml:space="preserve"><g><path d="M391.699,409.983l10.545,12.033c8.742-7.66,13.756-18.701,13.756-30.292c0-11.259-4.721-22.053-12.953-29.616   l-10.824,11.783c5.016,4.607,7.777,10.94,7.777,17.833C400,398.706,396.975,405.36,391.699,409.983z"/><path d="M386.053,430.657l-4.105-15.465c-4.035,1.07-8.389,0.996-12.488,0.234l-2.918,15.732c3.008,0.558,6.098,0.841,9.184,0.841   C379.221,432,382.695,431.548,386.053,430.657z"/><path d="M477.124,321.264l-10.546-15.818C454.424,287.214,448,265.996,448,244.085c0-2.528,0.088-5.089,0.263-7.61L464.57,0H240   v270.75c0,41.319-24.46,78.719-62.314,95.281l-30.968,13.548c-18.151,7.941-38.076,10.416-57.62,7.161   C78.192,384.922,67.057,384,56,384c-30.879,0-56,25.121-56,56s25.121,56,56,56h183.208c27.058,0,54.228-2.639,80.784-7.843   l15.289,3.058c15.877,3.175,32.136,4.785,48.326,4.785C445.581,496,496,445.581,496,383.607   C496,361.346,489.473,339.788,477.124,321.264z M387.561,235.016c-1.121-1.07-2.309-2.077-3.561-3.016   c-10.019-7.514-16-19.477-16-32V16h46.938L387.561,235.016z M393.174,337.531l7.718,3.859C420.08,350.983,432,370.271,432,391.725   c0,31.03-25.245,56.275-56.275,56.275c-13.844,0-27.115-4.253-38.381-12.3l-19.127-13.662C319.38,417.551,320,412.846,320,408   v-24.17c1.222,0.11,2.45,0.17,3.682,0.17c9.852,0,19.396-3.531,26.878-9.942L393.174,337.531z M103.155,440.199l3.9,7.801H52.993   C50.24,448,48,445.76,48,443.007c0-2.451,1.755-4.522,4.173-4.925l35.279-5.881c0.802-0.134,1.622-0.201,2.438-0.201   C95.544,432,100.627,435.142,103.155,440.199z M340.147,361.909c-4.583,3.928-10.431,6.091-16.466,6.091   c-5.724,0-11.337-1.969-15.805-5.544l-26.891-21.513l32.201-48.303c1.938-2.905,5.18-4.641,8.672-4.641   c2.24,0,4.461,0.74,6.253,2.085l51.109,38.331L340.147,361.909z M304,378.996V408c0,22.056-17.944,40-40,40H124.944l-6.642-13.283   l72.34-16.862c29.829-6.953,55.614-24.817,72.604-50.303l8.83-13.245l25.804,20.644C299.801,376.486,301.852,377.835,304,378.996z    M351.999,288l-14.286-10.715c-4.544-3.408-10.174-5.285-15.854-5.285c-8.854,0-17.072,4.398-21.984,11.766l-0.547,0.82   l-0.61-0.152c-6.311-1.578-10.718-7.223-10.718-13.728c0-2.803,0.821-5.517,2.376-7.849l5.441-8.162   c5.354-8.029,8.183-17.374,8.183-27.023c0-2.917-0.265-5.85-0.786-8.715l-15.106-83.084c-0.071-0.394-0.107-0.796-0.107-1.196   c0-3.682,2.995-6.677,6.677-6.677h24.025c9.538,0,17.298-7.76,17.298-17.298c0-7.458-4.753-14.053-11.827-16.411l-30.702-10.234   c-3.272-1.09-5.471-4.141-5.471-7.589V16h64v184c0,17.532,8.374,34.28,22.4,44.801c6.011,4.508,9.6,11.686,9.6,19.199   c0,13.233-10.767,24-24,24H351.999z M383.607,480c-15.139,0-30.343-1.506-45.188-4.475L320,471.842l-1.569,0.313   C292.404,477.36,265.75,480,239.208,480H56c-22.056,0-40-17.944-40-40s17.944-40,40-40c10.178,0,20.428,0.849,30.467,2.522   c22.61,3.767,45.663,0.904,66.663-8.285l30.969-13.548C227.777,361.579,256,318.426,256,270.75V16h16v60.468   c0,10.347,6.595,19.496,16.41,22.769l30.702,10.234c0.531,0.177,0.888,0.672,0.888,1.231c0,0.716-0.582,1.298-1.298,1.298h-24.025   C282.173,112,272,122.173,272,134.677c0,1.355,0.123,2.72,0.365,4.056l15.106,83.088c0.351,1.925,0.528,3.893,0.528,5.852   c0,6.48-1.9,12.756-5.495,18.148l-5.441,8.162c-3.313,4.969-5.063,10.752-5.063,16.724c0,12.182,7.258,22.944,18.145,27.655   l-40.21,60.316c-14.726,22.087-37.072,37.569-62.925,43.596l-80.285,18.714C101.824,417.792,96.023,416,89.89,416   c-1.695,0-3.401,0.142-5.069,0.419l-35.277,5.88C39.378,423.993,32,432.702,32,443.007C32,454.582,41.417,464,52.993,464H264   c20.218,0,37.965-10.771,47.812-26.875l16.232,11.595c13.995,9.996,30.482,15.28,47.681,15.28C415.577,464,448,431.577,448,391.725   c0-27.553-15.309-52.324-39.953-64.646l-11.823-5.911l-25.031-18.773c16.431-4.798,28.514-19.872,28.792-37.768L431.063,16h16.367   L432.3,235.373c-0.199,2.887-0.3,5.818-0.3,8.713c0,25.08,7.354,49.366,21.266,70.234l10.546,15.818   C474.402,346.025,480,364.515,480,383.607C480,436.759,436.759,480,383.607,480z"/></g></svg>