<svg xmlns="http://www.w3.org/2000/svg" version="1.1" viewBox="-5.0 -10.0 110.0 135.0">
 <path d="m78.605 38.66c0-4.8984-5.2969-7.9727-9.5508-5.5391l-15.914 9.0938v10.418l22.066 15.758c1.4219 1.0156 3.3984 0 3.3984-1.75zm-11.617-9.1562c7.0312-4.0195 15.781 1.0586 15.781 9.1562v27.98c0 5.1406-5.8047 8.1289-9.9844 5.1406l-22.938-16.383c-0.54688-0.39063-0.87109-1.0234-0.87109-1.6953v-12.699c0-0.74609 0.39844-1.4375 1.0469-1.8086z" fill-rule="evenodd"/>
 <path d="m42.625 41.004c0-1.1484 0.93359-2.082 2.0859-2.082h6.3477c1.1484 0 2.082 0.93359 2.082 2.082v12.699c0 1.1523-0.93359 2.082-2.082 2.082h-6.3477c-1.1523 0-2.0859-0.92969-2.0859-2.082zm4.168 2.0859v8.5312h2.1836v-8.5312z" fill-rule="evenodd"/>
 <path d="m38.359 43.09c-1.8555 0-3.4375 1.1836-4.0234 2.8438-0.38281 1.082-1.5742 1.6523-2.6602 1.2695-1.082-0.38281-1.6523-1.5742-1.2695-2.6602 1.1562-3.2695 4.2773-5.6211 7.9531-5.6211 4.6562 0 8.4336 3.7773 8.4336 8.4336s-3.7773 8.4297-8.4336 8.4297c-0.98047 0-1.9297-0.16797-2.8086-0.47656-1.0859-0.38672-1.6562-1.5742-1.2734-2.6602 0.38672-1.0859 1.5742-1.6523 2.6602-1.2695 0.44141 0.15625 0.92188 0.24219 1.4219 0.24219 2.3555 0 4.2656-1.9102 4.2656-4.2656s-1.9102-4.2656-4.2656-4.2656z" fill-rule="evenodd"/>
 <path d="m24.551 41.781c2.2383-0.55859 4.6055-0.30078 6.668 0.73047l1.7227 0.86328c0.40234 0.20312 0.73047 0.52734 0.93359 0.93359l4.2305 8.4648c0.14453 0.28906 0.22266 0.60547 0.22266 0.92969v29.629c0 1.1523-0.93359 2.0859-2.0859 2.0859-1.1484 0-2.082-0.93359-2.082-2.0859v-29.137l-3.7031-7.4023-1.1016-0.55469c-1.1758-0.58594-2.5195-0.73438-3.793-0.41406l-0.37891 0.09375c-2.2266 0.55469-3.7891 2.5547-3.7891 4.8516 0 1.3281 0.52734 2.5977 1.4648 3.5352l2.1602 2.1602c0.39062 0.39062 0.60938 0.91797 0.60938 1.4727v25.395c0 1.1523-0.93359 2.0859-2.082 2.0859-1.1523 0-2.0859-0.93359-2.0859-2.0859v-24.531l-1.5469-1.5469c-1.7188-1.7227-2.6836-4.0547-2.6836-6.4844 0-4.207 2.8633-7.875 6.9414-8.8945z" fill-rule="evenodd"/>
 <path d="m47.125 30.559c-4.2188-7.0312 0.84766-15.977 9.0469-15.977h17.109c2.9023 0 5.2578 2.3555 5.2578 5.2578 0 2.9062-2.3555 5.2578-5.2578 5.2578h-17.109c-0.011719 0-0.015625 0.003906-0.019531 0.003906 0 0-0.003906 0.003907-0.011719 0.015626-0.003906 0.007812-0.003906 0.015624-0.007813 0.015624 0.003907 0.003907 0.003907 0.007813 0.007813 0.015626l5.6484 9.4102c0.58984 0.98828 0.26953 2.2695-0.71484 2.8594-0.98828 0.59375-2.2656 0.27344-2.8594-0.71484l-5.6445-9.4102c-1.6797-2.8008 0.33594-6.3594 3.6016-6.3594h17.109c0.60156 0 1.0898-0.48828 1.0898-1.0938 0-0.60156-0.48828-1.0898-1.0898-1.0898h-17.109c-4.9609 0-8.0273 5.4102-5.4727 9.6641l5.707 9.5156c0.59375 0.98828 0.27344 2.2656-0.71484 2.8594-0.98828 0.58984-2.2656 0.27344-2.8594-0.71484z" fill-rule="evenodd"/>
</svg>