<svg xmlns="http://www.w3.org/2000/svg" version="1.1" viewBox="-5.0 -10.0 110.0 135.0">
 <path d="m70.012 11.109c0.38672-0.78125 1.2383-1.2188 2.0977-1.0859l15.949 2.5 0.17578 0.035156c0.86719 0.21875 1.4922 0.98828 1.5117 1.8984 0.16797 7.5117 0.31641 18.656 0.22656 28.934-0.089844 10.184-0.41797 19.773-1.2578 24-0.86328 4.3281-3.0742 8.8945-5.3945 12.762-2.332 3.8945-4.8633 7.2344-6.5156 9.1523-0.50781 0.58984-1.3164 0.83203-2.0664 0.61719l-13.953-4c-0.03125-0.007813-0.066406-0.019531-0.097656-0.03125-15.156-5.1836-26.875-16.148-36.418-28.105l-11.465 5.0469c-0.61719 0.26953-1.332 0.21094-1.8984-0.15625-0.56641-0.37109-0.90625-1-0.90625-1.6758v-36.5c0-1.1055 0.89453-2 2-2h4.8203c6.3789 0 12.496 2.5391 17 7.0586l29.648 29.746c2.168-3.4531 4.75-7.5781 6.7852-11.746 1.2305-2.5234 2.2266-4.9961 2.8008-7.2734 0.51562-2.0625 0.65625-3.8477 0.39453-5.3203l-8.5859-9.0938c-0.70703-0.75-0.72656-1.9219-0.039062-2.6992l1.3164-1.4844-0.28125-1.2539c-0.097656-0.44922-0.039063-0.91406 0.16406-1.3242zm0.97266 7.0078c0.25 0.089843 0.47656 0.23047 0.67578 0.41016l1.0977 1.0078 0.77344-1.4336 0.078125-0.13672c0.44141-0.67969 1.25-1.0312 2.0547-0.87891l4.9844 0.94922c0.67187 0.12891 1.2305 0.58984 1.4844 1.2266 0.25 0.63672 0.16016 1.3594-0.23828 1.9102l-3.9883 5.5c-0.33594 0.46484-0.85156 0.76172-1.4219 0.81641-0.56641 0.058594-1.1328-0.12891-1.5508-0.51562l-4.4805-4.1211-0.64453 0.72266-0.78125 0.88281 7.7148 8.168 0.085937 0.097656c0.19141 0.23047 0.32812 0.50391 0.40234 0.79297 0.60938 2.4414 0.36328 5.1172-0.29688 7.7461-0.66406 2.6445-1.7852 5.3906-3.0859 8.0547-2.2891 4.6914-5.2461 9.3359-7.4805 12.898l4.3594 4.3711c0.77734 0.78516 0.77734 2.0508-0.007812 2.832-0.78125 0.77734-2.0469 0.77734-2.8242-0.007813l-36.91-37.027c-3.75-3.7656-8.8477-5.8828-14.164-5.8828h-2.8203v31.434l7.3672-3.2422c-1.1484-0.76562-2.4922-1.1914-3.8828-1.1914-1.1055 0-2-0.89453-2-2s0.89453-2 2-2c3.4648 0 6.6797 1.6562 8.7734 4.3477 9.5469 12.262 21 23.211 35.684 28.246l12.645 3.6211c1.4766-1.8281 3.457-4.5352 5.3047-7.6172 2.2266-3.7148 4.168-7.8164 4.8984-11.488 0.75391-3.7734 1.0898-12.934 1.1836-23.254 0.085938-9.4844-0.039062-19.73-0.19141-27.141l-12.844-2.0117zm4.8086 4.2109 0.19141 0.17578 0.82031-1.1289-0.44922-0.085938z"/>
</svg>