<?xml version="1.0" encoding="UTF-8"?>
<svg id="Layer_2" data-name="Layer 2" xmlns="http://www.w3.org/2000/svg" xmlns:xlink="http://www.w3.org/1999/xlink" viewBox="0 0 4355.3 2314.83">
  <defs>
    <style>
      .cls-1 {
        fill: #1a93d1;
      }

      .cls-2 {
        fill: #3491ba;
      }

      .cls-3 {
        clip-path: url(#clippath-4);
      }

      .cls-4 {
        fill: url(#linear-gradient-2);
      }

      .cls-5 {
        fill: url(#linear-gradient-10);
      }

      .cls-6 {
        fill: #057aa9;
      }

      .cls-7 {
        clip-path: url(#clippath-9);
      }

      .cls-8 {
        fill: #0478b4;
      }

      .cls-9 {
        fill: none;
      }

      .cls-10 {
        fill: url(#linear-gradient-4);
      }

      .cls-11 {
        fill: url(#radial-gradient-5);
      }

      .cls-12 {
        fill: url(#radial-gradient);
      }

      .cls-13 {
        fill: url(#radial-gradient-3);
      }

      .cls-14 {
        fill: url(#linear-gradient-3);
      }

      .cls-15 {
        clip-path: url(#clippath-1);
      }

      .cls-16 {
        fill: url(#linear-gradient-5);
      }

      .cls-17 {
        fill: #eaeaea;
      }

      .cls-18 {
        clip-path: url(#clippath-5);
      }

      .cls-19 {
        clip-path: url(#clippath-8);
      }

      .cls-20 {
        fill: url(#linear-gradient-8);
      }

      .cls-21 {
        clip-path: url(#clippath-3);
      }

      .cls-22 {
        fill: url(#radial-gradient-2);
      }

      .cls-23 {
        fill: url(#radial-gradient-4);
      }

      .cls-24 {
        fill: url(#linear-gradient-7);
      }

      .cls-25 {
        fill: url(#linear-gradient-9);
      }

      .cls-26 {
        fill: url(#linear-gradient-11);
      }

      .cls-27 {
        fill: #9a9a9a;
      }

      .cls-28 {
        fill: url(#linear-gradient-6);
      }

      .cls-29 {
        fill: url(#radial-gradient-6);
      }

      .cls-30 {
        fill: url(#radial-gradient-7);
      }

      .cls-31 {
        fill: url(#linear-gradient);
      }

      .cls-32 {
        clip-path: url(#clippath);
      }

      .cls-33 {
        fill: #288dbd;
      }
    </style>
    <radialGradient id="radial-gradient" cx="2143.76" cy="1380.04" fx="2143.76" fy="1380.04" r="314.59" gradientUnits="userSpaceOnUse">
      <stop offset="0" stop-color="#19ace4"/>
      <stop offset="1" stop-color="#1385c8"/>
    </radialGradient>
    <radialGradient id="radial-gradient-2" cx="202.65" cy="2147.85" fx="202.65" fy="2147.85" r="185.48" xlink:href="#radial-gradient"/>
    <radialGradient id="radial-gradient-3" cx="673.08" cy="2148.28" fx="673.08" fy="2148.28" r="168.31" xlink:href="#radial-gradient"/>
    <radialGradient id="radial-gradient-4" cx="1044.6" cy="2148.28" fx="1044.6" fy="2148.28" r="167.27" xlink:href="#radial-gradient"/>
    <radialGradient id="radial-gradient-5" cx="1455.11" cy="2148.28" fx="1455.11" fy="2148.28" r="168.19" xlink:href="#radial-gradient"/>
    <radialGradient id="radial-gradient-6" cx="1925.33" cy="2147.85" fx="1925.33" fy="2147.85" r="185.48" xlink:href="#radial-gradient"/>
    <linearGradient id="linear-gradient" x1="1499.69" y1="1561.11" x2="3291.95" y2="1561.11" gradientTransform="translate(-835.47 -634.27)" gradientUnits="userSpaceOnUse">
      <stop offset="0" stop-color="#e8e6e5"/>
      <stop offset="1" stop-color="#dcdbdb"/>
    </linearGradient>
    <linearGradient id="linear-gradient-2" y1="966.04" x2="3291.95" y2="966.04" xlink:href="#linear-gradient"/>
    <clipPath id="clippath">
      <path class="cls-9" d="M2167.37,647.1c-.37,3.16,2.6.59.02,1.99-48.66,26.76-115.65,73.89-160.26,107.97-48.2,36.81-94.49,76.1-138.95,117.35-74.64,69.27-145.02,143.4-207.85,223.62-15.13,19.32-30,38.85-44.32,58.8-25.64,35.65-49.97,72.31-71.99,110.32-21.95,37.82-41.64,77-58.14,117.51-7.81,19.2-17.29,37.72-28.5,55.17-25.02,38.94-58.73,71.85-98.51,95.56-46.87,27.92-100.7,43.76-155.23,45.59-55.72,1.87-110.91-12.82-159.73-39.41-6.98-2.8-13.78-8-20.06-12.05-9.06-5.85-17.83-12.13-26.27-18.84-20.13-16.01-38.41-34.42-53.94-54.95-2.94-3.9-5.79-7.86-8.54-11.89-.61-.89-1.21-1.8-1.82-2.7-.47-.72-.94-1.43-1.42-2.16-31.65-48.6-48.35-104.57-49.6-162.5-1.18-53.84,11.07-107.05,34.23-155.53,13.68-28.61,32.73-54.53,55.25-76.8,16.01-15.83,33.94-28.21,52.65-40.41,1.67-1.01,3.29-2.13,4.94-3.16.29-.14.56-.34.83-.51,18.34-11.29,37.93-20.28,57.68-28.76,19.81-8.5,39.8-16.55,59.2-25.96,25.2-12.23,49.58-26.37,73.49-41,37.5-22.93,73.79-48,108.75-74.64,36.15-27.55,72.87-54.54,107.5-84.02.66-.57,63.89-56.79,80.09-72.27,23.15-23.15,46.8-45.67,69.02-69.74,30.49-33,59.13-67.85,86.82-103.22,27.7-35.38,56.72-69.69,83.34-105.97,1.37-1.86,2.72-3.73,4.08-5.6,8.74-12.1,17.23-24.38,25.46-36.81,8.25-12.45,16.25-25.05,24.06-37.77,3.95-6.43,7.83-12.91,11.66-19.4,3.71-6.28,7.81-12.52,11.07-19.03,7.51-12.97,14.96-26.01,21.31-39.61.39-.83.93-3.15,1.97-3.36,1.27-.24,2.61-.39,3.95-.46-3.37,14.9-5.7,30.22-6.87,45.82-.02.2-.03.39-.05.59v.02c-.56,7.69-.84,15.44-.84,23.26,0,4.64,9.47-8.46,9.67-3.87l.56,7.03c0,.05,2.8,4.82,2.81,4.87.19,4.32-3.03,5.96-2.62,10.22.88,10.17-.6,6.67,1.22,16.54v6.42c1.4,7.47-.45,6.02,1.45,13.31,0,.03,5.4-19.69,2.16,1.03,0,0,.73,6.51.75,6.51.25.96,2.07,3.58,2.34,4.55l1.92,5.62c.88,3.26.33,8.21,1.31,11.43l2.16,1.92c.15.51.72,1.53.89,2.02.02.07-.02,3.17,0,3.23.57,1.8,4.36,2.35,4.97,4.12,1.55,4.67,8.88,3.11,10.64,7.66h0c.25.71,41.95-18.9,14.62-4.12.1.3-11.38,9.82-11.25,10.12,5.8,14.56,16.54,13.6,24.37,26.99,0,.02-25.22,22.82-25.22,22.83.84,1.45,1.72,2.9,2.58,4.35.1.15.2.32.3.49,1.64,2.68,3.32,5.36,5.04,7.98.02.03.03.07.03.08,7.49,11.52,24.65,32.95,24.65,32.95.61.71,2.53,2.94,2.73,3.15,3.86,4.39,7.84,8.69,11.96,12.86.03.05.07.08.12.14,2.09,2.16,4.23,4.29,6.41,6.36,2.16,2.08,4.35,4.13,6.58,6.14.32.3.64.61.98.89.05.05.08.08.14.1l.02.02c2.21,2.01,4.44,3.95,6.71,5.9.2.17.39.34.59.49.57.49,1.15.96,1.72,1.42,2.88,2.45,5.82,4.79,8.79,7.09.15.12.3.24.45.35,10.21,7.9,20.94,15.17,32.09,21.78.03.02.07.03.08.05,1.52.89,3.05,1.77,4.59,2.65h.02c.3.19.61.35.93.52.54.32,1.1.64,1.65.93.02,0,.02.02.03.02h.02s.02.02.03.02h.02s.03.02.05.02c.02.02.05.02.07.03,7.25,4.08,14.7,7.81,22.3,11.3.02.02.05.02.07.03.02,0,.03.02.05.02,4.57,2.08,9.21,4.05,13.9,5.9.15.07.3.14.46.19.52.22,1.03.42,1.55.61h.02s.02.02.03.02c9.38,3.66,18.98,6.88,28.78,9.63,3.44.96,6.9,1.87,10.39,2.73h.02c.74.17,2.25-.92,3-.75,8.5,3.9,16.24,9.07,24.74,12.97,5.62,2.6,11.25,5.18,16.85,7.79,2.33,1.08,6.78,4.34,9.3,4.34,6.17,2.87,12.37,5.75,18,9.57.07.05.15.1.22.15,1.23.84,2.45,1.79,3.16,3.09.44.81.59,1.52.52,2.14Z"/>
    </clipPath>
    <linearGradient id="linear-gradient-3" x1="1499.69" y1="1511.9" x2="3291.95" y2="1511.9" xlink:href="#linear-gradient"/>
    <linearGradient id="linear-gradient-4" x1="882.21" y1="926.84" x2="2143.91" y2="926.84" gradientUnits="userSpaceOnUse">
      <stop offset="0" stop-color="#c9c9c9"/>
      <stop offset="1" stop-color="#c5c2c3"/>
    </linearGradient>
    <linearGradient id="linear-gradient-5" x1="1831.33" y1="331.77" x2="2456.48" y2="331.77" xlink:href="#linear-gradient-4"/>
    <linearGradient id="linear-gradient-6" x1="882.21" y1="906.79" x2="2168.45" y2="906.79" xlink:href="#linear-gradient-4"/>
    <linearGradient id="linear-gradient-7" x1="882.21" y1="906.79" x2="2168.45" y2="906.79" xlink:href="#linear-gradient-4"/>
    <clipPath id="clippath-1">
      <path class="cls-24" d="M2167.37,647.1c-.37,3.16,2.6.59.02,1.99-48.66,26.76-115.65,73.89-160.26,107.97-48.2,36.81-94.49,76.1-138.95,117.35-74.64,69.27-145.02,143.4-207.85,223.62-15.13,19.32-30,38.85-44.32,58.8-25.64,35.65-49.97,72.31-71.99,110.32-21.95,37.82-41.64,77-58.14,117.51-7.81,19.2-17.29,37.72-28.5,55.17-25.02,38.94-58.73,71.85-98.51,95.56-46.87,27.92-100.7,43.76-155.23,45.59-55.72,1.87-110.91-12.82-159.73-39.41-6.98-2.8-13.78-8-20.06-12.05-9.06-5.85-17.83-12.13-26.27-18.84-20.13-16.01-38.41-34.42-53.94-54.95-2.94-3.9-5.79-7.86-8.54-11.89-.61-.89-1.21-1.8-1.82-2.7-.47-.72-.94-1.43-1.42-2.16-31.65-48.6-48.35-104.57-49.6-162.5-1.18-53.84,11.07-107.05,34.23-155.53,13.68-28.61,32.73-54.53,55.25-76.8,16.01-15.83,33.94-28.21,52.65-40.41,1.67-1.01,3.29-2.13,4.94-3.16.29-.14.56-.34.83-.51,18.34-11.29,37.93-20.28,57.68-28.76,19.81-8.5,39.8-16.55,59.2-25.96,25.2-12.23,49.58-26.37,73.49-41,37.5-22.93,73.79-48,108.75-74.64,36.15-27.55,72.87-54.54,107.5-84.02.66-.57,63.89-56.79,80.09-72.27,23.15-23.15,46.8-45.67,69.02-69.74,30.49-33,59.13-67.85,86.82-103.22,27.7-35.38,56.72-69.69,83.34-105.97,1.37-1.86,2.72-3.73,4.08-5.6,8.74-12.1,17.23-24.38,25.46-36.81,8.25-12.45,16.25-25.05,24.06-37.77,3.95-6.43,7.83-12.91,11.66-19.4,3.71-6.28,7.81-12.52,11.07-19.03,7.51-12.97,14.96-26.01,21.31-39.61.39-.83.93-3.15,1.97-3.36,1.27-.24,2.61-.39,3.95-.46-3.37,14.9-5.7,30.22-6.87,45.82-.02.2-.03.39-.05.59v.02c-.56,7.69-.84,15.44-.84,23.26,0,4.64,9.47-8.46,9.67-3.87l.56,7.03c0,.05,2.8,4.82,2.81,4.87.19,4.32-3.03,5.96-2.62,10.22.88,10.17-.6,6.67,1.22,16.54v6.42c1.4,7.47-.45,6.02,1.45,13.31,0,.03,5.4-19.69,2.16,1.03,0,0,.73,6.51.75,6.51.25.96,2.07,3.58,2.34,4.55l1.92,5.62c.88,3.26.33,8.21,1.31,11.43l2.16,1.92c.15.51.72,1.53.89,2.02.02.07-.02,3.17,0,3.23.57,1.8,4.36,2.35,4.97,4.12,1.55,4.67,8.88,3.11,10.64,7.66h0c.25.71,41.95-18.9,14.62-4.12.1.3-11.38,9.82-11.25,10.12,5.8,14.56,16.54,13.6,24.37,26.99,0,.02-25.22,22.82-25.22,22.83.84,1.45,1.72,2.9,2.58,4.35.1.15.2.32.3.49,1.64,2.68,3.32,5.36,5.04,7.98.02.03.03.07.03.08,7.49,11.52,24.65,32.95,24.65,32.95.61.71,2.53,2.94,2.73,3.15,3.86,4.39,7.84,8.69,11.96,12.86.03.05.07.08.12.14,2.09,2.16,4.23,4.29,6.41,6.36,2.16,2.08,4.35,4.13,6.58,6.14.32.3.64.61.98.89.05.05.08.08.14.1l.02.02c2.21,2.01,4.44,3.95,6.71,5.9.2.17.39.34.59.49.57.49,1.15.96,1.72,1.42,2.88,2.45,5.82,4.79,8.79,7.09.15.12.3.24.45.35,10.21,7.9,20.94,15.17,32.09,21.78.03.02.07.03.08.05,1.52.89,3.05,1.77,4.59,2.65h.02c.3.19.61.35.93.52.54.32,1.1.64,1.65.93.02,0,.02.02.03.02h.02s.02.02.03.02h.02s.03.02.05.02c.02.02.05.02.07.03,7.25,4.08,14.7,7.81,22.3,11.3.02.02.05.02.07.03.02,0,.03.02.05.02,4.57,2.08,9.21,4.05,13.9,5.9.15.07.3.14.46.19.52.22,1.03.42,1.55.61h.02s.02.02.03.02c9.38,3.66,18.98,6.88,28.78,9.63,3.44.96,6.9,1.87,10.39,2.73h.02c.74.17,2.25-.92,3-.75,8.5,3.9,16.24,9.07,24.74,12.97,5.62,2.6,11.25,5.18,16.85,7.79,2.33,1.08,6.78,4.34,9.3,4.34,6.17,2.87,12.37,5.75,18,9.57.07.05.15.1.22.15,1.23.84,2.45,1.79,3.16,3.09.44.81.59,1.52.52,2.14Z"/>
    </clipPath>
    <linearGradient id="linear-gradient-8" x1="664.22" y1="877.63" x2="1933.25" y2="877.63" xlink:href="#linear-gradient-4"/>
    <clipPath id="clippath-3">
      <path class="cls-9" d="M2422.18,461.07c-13.68,28.61-32.73,54.53-55.25,76.8-16.01,15.82-33.94,28.21-52.65,40.41-1.67,1.01-3.29,2.13-4.94,3.15-.29.13-.56.34-.83.51-18.34,11.29-37.93,20.28-57.68,28.76-19.81,8.5-39.8,16.55-59.2,25.96-8.17,3.96-16.23,8.11-24.23,12.43-48.66,26.74-115.65,73.88-160.26,107.97-48.2,36.8-94.49,76.09-138.95,117.35-74.64,69.27-145.02,143.4-207.85,223.61-15.13,19.33-30,38.87-44.32,58.79-25.64,35.65-49.97,72.31-71.99,110.34-21.95,37.82-41.64,77-58.14,117.51-7.81,19.18-17.29,37.71-28.49,55.17-25.02,38.92-58.73,71.85-98.51,95.54-46.87,27.94-100.7,43.76-155.23,45.59-55.72,1.87-110.91-12.82-159.73-39.39-6.98-2.82-13.78-8.01-20.06-12.06-9.06-5.84-17.83-12.13-26.27-18.84-20.13-15.99-38.41-34.4-53.94-54.93-2.94-3.9-5.79-7.88-8.54-11.91-.61-.88-1.21-1.79-1.82-2.7-.47-.71-.94-1.42-1.42-2.16-31.65-48.6-48.35-104.57-49.6-162.48-1.18-53.85,11.07-107.06,34.23-155.53,13.68-28.63,32.73-54.54,55.25-76.8,16.01-15.84,33.94-28.22,52.65-40.42,1.67-1.01,3.29-2.11,4.94-3.15.29-.13.56-.32.83-.49,18.34-11.29,37.93-20.28,57.68-28.76,19.81-8.5,39.8-16.55,59.2-25.96,8.17-3.95,16.23-8.11,24.23-12.43,48.66-26.76,115.65-73.89,160.26-107.97,48.2-36.81,94.49-76.1,138.95-117.35,74.64-69.27,145.02-143.4,207.85-223.62,15.13-19.32,30-38.85,44.32-58.79,25.64-35.65,49.97-72.31,71.99-110.32,21.95-37.82,41.64-77,58.14-117.51,7.81-19.2,17.29-37.72,28.49-55.17,25.02-38.94,63.18-72.61,99.1-94.64,46.81-28.72,99.95-44.53,154.64-46.5,55.25-1.99,110.91,12.82,159.73,39.41,6.98,2.8,13.78,8,20.06,12.05,9.06,5.85,17.83,12.13,26.27,18.84,20.13,16.01,38.41,34.42,53.94,54.95,2.94,3.9,5.79,7.86,8.54,11.89.61.89,1.21,1.81,1.82,2.7.47.73.94,1.43,1.42,2.16,31.65,48.6,48.35,104.57,49.6,162.5,1.18,53.83-11.07,107.05-34.23,155.53Z"/>
    </clipPath>
    <linearGradient id="linear-gradient-9" x1="667.84" y1="697.67" x2="2366.17" y2="697.67" gradientTransform="matrix(1,0,0,1,0,0)" xlink:href="#linear-gradient"/>
    <clipPath id="clippath-4">
      <path class="cls-9" d="M2167.37,647.1c-.37,3.16,2.6.59.02,1.99-48.66,26.76-115.65,73.89-160.26,107.97-48.2,36.81-94.49,76.1-138.95,117.35-74.64,69.27-145.02,143.4-207.85,223.62-15.13,19.32-30,38.85-44.32,58.8-25.64,35.65-49.97,72.31-71.99,110.32-21.95,37.82-41.64,77-58.14,117.51-7.81,19.2-17.29,37.72-28.5,55.17-25.02,38.94-58.73,71.85-98.51,95.56-46.87,27.92-100.7,43.76-155.23,45.59-55.72,1.87-110.91-12.82-159.73-39.41-6.98-2.8-13.78-8-20.06-12.05-9.06-5.85-17.83-12.13-26.27-18.84-20.13-16.01-38.41-34.42-53.94-54.95-2.94-3.9-5.79-7.86-8.54-11.89-.61-.89-1.21-1.8-1.82-2.7-.47-.72-.94-1.43-1.42-2.16-31.65-48.6-48.35-104.57-49.6-162.5-1.18-53.84,11.07-107.05,34.23-155.53,13.68-28.61,32.73-54.53,55.25-76.8,16.01-15.83,33.94-28.21,52.65-40.41,1.67-1.01,3.29-2.13,4.94-3.16.29-.14.56-.34.83-.51,18.34-11.29,37.93-20.28,57.68-28.76,19.81-8.5,39.8-16.55,59.2-25.96,25.2-12.23,49.58-26.37,73.49-41,37.5-22.93,73.79-48,108.75-74.64,36.15-27.55,72.87-54.54,107.5-84.02.66-.57,63.89-56.79,80.09-72.27,23.15-23.15,46.8-45.67,69.02-69.74,30.49-33,59.13-67.85,86.82-103.22,27.7-35.38,56.72-69.69,83.34-105.97,1.37-1.86,2.72-3.73,4.08-5.6,8.74-12.1,17.23-24.38,25.46-36.81,8.25-12.45,16.25-25.05,24.06-37.77,3.95-6.43,7.83-12.91,11.66-19.4,3.71-6.28,7.81-12.52,11.07-19.03,7.51-12.97,14.96-26.01,21.31-39.61.39-.83.93-3.15,1.97-3.36,1.27-.24,2.61-.39,3.95-.46-3.37,14.9-5.7,30.22-6.87,45.82-.02.2-.03.39-.05.59v.02c-.56,7.69-.84,15.44-.84,23.26,0,4.64,9.47-8.46,9.67-3.87l.56,7.03c0,.05,2.8,4.82,2.81,4.87.19,4.32-3.03,5.96-2.62,10.22.88,10.17-.6,6.67,1.22,16.54v6.42c1.4,7.47-.45,6.02,1.45,13.31,0,.03,5.4-19.69,2.16,1.03,0,0,.73,6.51.75,6.51.25.96,2.07,3.58,2.34,4.55l1.92,5.62c.88,3.26.33,8.21,1.31,11.43l2.16,1.92c.15.51.72,1.53.89,2.02.02.07-.02,3.17,0,3.23.57,1.8,4.36,2.35,4.97,4.12,1.55,4.67,8.88,3.11,10.64,7.66h0c.25.71,41.95-18.9,14.62-4.12.1.3-11.38,9.82-11.25,10.12,5.8,14.56,16.54,13.6,24.37,26.99,0,.02-25.22,22.82-25.22,22.83.84,1.45,1.72,2.9,2.58,4.35.1.15.2.32.3.49,1.64,2.68,3.32,5.36,5.04,7.98.02.03.03.07.03.08,7.49,11.52,24.65,32.95,24.65,32.95.61.71,2.53,2.94,2.73,3.15,3.86,4.39,7.84,8.69,11.96,12.86.03.05.07.08.12.14,2.09,2.16,4.23,4.29,6.41,6.36,2.16,2.08,4.35,4.13,6.58,6.14.32.3.64.61.98.89.05.05.08.08.14.1l.02.02c2.21,2.01,4.44,3.95,6.71,5.9.2.17.39.34.59.49.57.49,1.15.96,1.72,1.42,2.88,2.45,5.82,4.79,8.79,7.09.15.12.3.24.45.35,10.21,7.9,20.94,15.17,32.09,21.78.03.02.07.03.08.05,1.52.89,3.05,1.77,4.59,2.65h.02c.3.19.61.35.93.52.54.32,1.1.64,1.65.93.02,0,.02.02.03.02h.02s.02.02.03.02h.02s.03.02.05.02c.02.02.05.02.07.03,7.25,4.08,14.7,7.81,22.3,11.3.02.02.05.02.07.03.02,0,.03.02.05.02,4.57,2.08,9.21,4.05,13.9,5.9.15.07.3.14.46.19.52.22,1.03.42,1.55.61h.02s.02.02.03.02c9.38,3.66,18.98,6.88,28.78,9.63,3.44.96,6.9,1.87,10.39,2.73h.02c.74.17,2.25-.92,3-.75,8.5,3.9,16.24,9.07,24.74,12.97,5.62,2.6,11.25,5.18,16.85,7.79,2.33,1.08,6.78,4.34,9.3,4.34,6.17,2.87,12.37,5.75,18,9.57.07.05.15.1.22.15,1.23.84,2.45,1.79,3.16,3.09.44.81.59,1.52.52,2.14Z"/>
    </clipPath>
    <linearGradient id="linear-gradient-10" x1="2448.81" y1="14416.4" x2="4241.07" y2="14416.4" gradientTransform="translate(-835.47 15207.4) scale(1 -1)" gradientUnits="userSpaceOnUse">
      <stop offset="0" stop-color="#3ebbe9"/>
      <stop offset="1" stop-color="#379cd7"/>
    </linearGradient>
    <clipPath id="clippath-5">
      <path class="cls-9" d="M3116.48,934.91c-.37-3.16,2.6-.59.02-1.99-48.66-26.76-115.65-73.89-160.26-107.97-48.2-36.81-94.49-76.1-138.95-117.35-74.64-69.27-145.02-143.4-207.85-223.62-15.13-19.32-30-38.85-44.32-58.8-25.64-35.65-49.97-72.31-71.99-110.32-21.95-37.82-41.64-77-58.14-117.51-7.81-19.2-17.29-37.72-28.5-55.17-25.02-38.94-58.73-71.85-98.51-95.56-46.87-27.92-100.7-43.76-155.23-45.59-55.72-1.87-110.91,12.82-159.73,39.41-6.98,2.8-13.78,8-20.06,12.05-9.06,5.85-17.83,12.13-26.27,18.84-20.13,16.01-38.41,34.42-53.94,54.95-2.94,3.9-5.79,7.86-8.54,11.89-.61.89-1.21,1.8-1.82,2.7-.47.72-.94,1.43-1.42,2.16-31.65,48.6-48.35,104.57-49.6,162.5-1.18,53.84,11.07,107.05,34.23,155.53,13.68,28.61,32.73,54.53,55.25,76.8,16.01,15.83,33.94,28.21,52.65,40.41,1.67,1.01,3.29,2.13,4.94,3.16.29.14.56.34.83.51,18.34,11.29,37.93,20.28,57.68,28.76,19.81,8.5,39.8,16.55,59.2,25.96,25.2,12.23,49.58,26.37,73.49,41,37.5,22.93,73.79,48,108.75,74.64,36.15,27.55,72.87,54.54,107.5,84.02.66.57,63.89,56.79,80.09,72.27,23.15,23.15,46.8,45.67,69.02,69.74,30.49,33,59.13,67.85,86.82,103.22,27.7,35.38,56.72,69.69,83.34,105.97,1.37,1.86,2.72,3.73,4.08,5.6,8.74,12.1,17.23,24.38,25.46,36.81,8.25,12.45,16.25,25.05,24.06,37.77,3.95,6.43,7.83,12.91,11.66,19.4,3.71,6.28,7.81,12.52,11.07,19.03,7.51,12.97,14.96,26.01,21.31,39.61.39.83.93,3.15,1.97,3.36,1.27.24,2.61.39,3.95.46-3.37-14.9-5.7-30.22-6.87-45.82-.02-.2-.03-.39-.05-.59v-.02c-.56-7.69-.84-15.44-.84-23.26,0-4.64,9.47,8.46,9.67,3.87l.56-7.03c0-.05,2.8-4.82,2.81-4.87.19-4.32-3.03-5.96-2.62-10.22.88-10.17-.6-6.67,1.22-16.54v-6.42c1.4-7.47-.45-6.02,1.45-13.31,0-.03,5.4,19.69,2.16-1.03,0,0,.73-6.51.75-6.51.25-.96,2.07-3.58,2.34-4.55l1.92-5.62c.88-3.26.33-8.21,1.31-11.43l2.16-1.92c.15-.51.72-1.53.89-2.02.02-.07-.02-3.17,0-3.23.57-1.8,4.36-2.35,4.97-4.12,1.55-4.67,8.88-3.11,10.64-7.66h0c.25-.71,41.95,18.9,14.62,4.12.1-.3-11.38-9.82-11.25-10.12,5.8-14.56,16.54-13.6,24.37-26.99,0-.02-25.22-22.82-25.22-22.83.84-1.45,1.72-2.9,2.58-4.35.1-.15.2-.32.3-.49,1.64-2.68,3.32-5.36,5.04-7.98.02-.03.03-.07.03-.08,7.49-11.52,24.65-32.95,24.65-32.95.61-.71,2.53-2.94,2.73-3.15,3.86-4.39,7.84-8.69,11.96-12.86.03-.05.07-.08.12-.14,2.09-2.16,4.23-4.29,6.41-6.36,2.16-2.08,4.35-4.13,6.58-6.14.32-.3.64-.61.98-.89.05-.05.08-.08.14-.1l.02-.02c2.21-2.01,4.44-3.95,6.71-5.9.2-.17.39-.34.59-.49.57-.49,1.15-.96,1.72-1.42,2.88-2.45,5.82-4.79,8.79-7.09.15-.12.3-.24.45-.35,10.21-7.9,20.94-15.17,32.09-21.78.03-.02.07-.03.08-.05,1.52-.89,3.05-1.77,4.59-2.65h.02c.3-.19.61-.35.93-.52.54-.32,1.1-.64,1.65-.93.02,0,.02-.02.03-.02h.02s.02-.02.03-.02h.02s.03-.02.05-.02c.02-.02.05-.02.07-.03,7.25-4.08,14.7-7.81,22.3-11.3.02-.02.05-.02.07-.03.02,0,.03-.02.05-.02,4.57-2.08,9.21-4.05,13.9-5.9.15-.07.3-.14.46-.19.52-.22,1.03-.42,1.55-.61h.02s.02-.02.03-.02c9.38-3.66,18.98-6.88,28.78-9.63,3.44-.96,6.9-1.87,10.39-2.73h.02c.74-.17,2.25.92,3,.75,8.5-3.9,16.24-9.07,24.74-12.97,5.62-2.6,11.25-5.18,16.85-7.79,2.33-1.08,6.78-4.34,9.3-4.34,6.17-2.87,12.37-5.75,18-9.57.07-.05.15-.1.22-.15,1.23-.84,2.45-1.79,3.16-3.09.44-.81.59-1.52.52-2.14Z"/>
    </clipPath>
    <linearGradient id="linear-gradient-11" y1="14503.03" x2="4241.07" y2="14503.03" xlink:href="#linear-gradient-10"/>
    <clipPath id="clippath-8">
      <path class="cls-9" d="M3371.29,1120.93c-13.68-28.61-32.73-54.53-55.25-76.8-16.01-15.82-33.94-28.21-52.65-40.41-1.67-1.01-3.29-2.13-4.94-3.15-.29-.13-.56-.34-.83-.51-18.34-11.29-37.93-20.28-57.68-28.76-19.81-8.5-39.8-16.55-59.2-25.96-8.17-3.96-16.23-8.11-24.23-12.43-48.66-26.74-115.65-73.88-160.26-107.97-48.2-36.8-94.49-76.09-138.95-117.35-74.64-69.27-145.02-143.4-207.85-223.61-15.13-19.33-30-38.87-44.32-58.79-25.64-35.65-49.97-72.31-71.99-110.34-21.95-37.82-41.64-77-58.14-117.51-7.81-19.18-17.29-37.71-28.49-55.17-25.02-38.92-58.73-71.85-98.51-95.54-46.87-27.94-100.7-43.76-155.23-45.59-55.72-1.87-110.91,12.82-159.73,39.39-6.98,2.82-13.78,8.01-20.06,12.06-9.06,5.84-17.83,12.13-26.27,18.84-20.13,15.99-38.41,34.4-53.94,54.93-2.94,3.9-5.79,7.88-8.54,11.91-.61.88-1.21,1.79-1.82,2.7-.47.71-.94,1.42-1.42,2.16-31.65,48.6-48.35,104.57-49.6,162.48-1.18,53.85,11.07,107.06,34.23,155.53,13.68,28.63,32.73,54.54,55.25,76.8,16.01,15.84,33.94,28.22,52.65,40.42,1.67,1.01,3.29,2.11,4.94,3.15.29.13.56.32.83.49,18.34,11.29,37.93,20.28,57.68,28.76,19.81,8.5,39.8,16.55,59.2,25.96,8.17,3.95,16.23,8.11,24.23,12.43,48.66,26.76,115.65,73.89,160.26,107.97,48.2,36.81,94.49,76.1,138.95,117.35,74.64,69.27,145.02,143.4,207.85,223.62,15.13,19.32,30,38.85,44.32,58.79,25.64,35.65,49.97,72.31,71.99,110.32,21.95,37.82,41.64,77,58.14,117.51,7.81,19.2,17.29,37.72,28.49,55.17,25.02,38.94,58.73,71.85,98.51,95.56,46.87,27.92,100.7,43.76,155.23,45.59,55.72,1.87,110.91-12.82,159.73-39.41,6.98-2.8,13.78-8,20.06-12.05,9.06-5.85,17.83-12.13,26.27-18.84,20.13-16.01,38.41-34.42,53.94-54.95,2.94-3.9,5.79-7.86,8.54-11.89.61-.89,1.21-1.81,1.82-2.7.47-.73.94-1.43,1.42-2.16,31.65-48.6,48.35-104.57,49.6-162.5,1.18-53.83-11.07-107.05-34.23-155.53Z"/>
    </clipPath>
    <radialGradient id="radial-gradient-7" cx="2467.48" cy="14953.43" fx="2467.48" fy="14953.43" r="817.48" gradientTransform="translate(0 15841.66) scale(1 -1)" xlink:href="#radial-gradient"/>
    <clipPath id="clippath-9">
      <path class="cls-9" d="M3116.48,934.91c-.37-3.16,2.6-.59.02-1.99-48.66-26.76-115.65-73.89-160.26-107.97-48.2-36.81-94.49-76.1-138.95-117.35-74.64-69.27-145.02-143.4-207.85-223.62-15.13-19.32-30-38.85-44.32-58.8-25.64-35.65-49.97-72.31-71.99-110.32-21.95-37.82-41.64-77-58.14-117.51-7.81-19.2-17.29-37.72-28.5-55.17-25.02-38.94-58.73-71.85-98.51-95.56-46.87-27.92-100.7-43.76-155.23-45.59-55.72-1.87-110.91,12.82-159.73,39.41-6.98,2.8-13.78,8-20.06,12.05-9.06,5.85-17.83,12.13-26.27,18.84-20.13,16.01-38.41,34.42-53.94,54.95-2.94,3.9-5.79,7.86-8.54,11.89-.61.89-1.21,1.8-1.82,2.7-.47.72-.94,1.43-1.42,2.16-31.65,48.6-48.35,104.57-49.6,162.5-1.18,53.84,11.07,107.05,34.23,155.53,13.68,28.61,32.73,54.53,55.25,76.8,16.01,15.83,33.94,28.21,52.65,40.41,1.67,1.01,3.29,2.13,4.94,3.16.29.14.56.34.83.51,18.34,11.29,37.93,20.28,57.68,28.76,19.81,8.5,39.8,16.55,59.2,25.96,25.2,12.23,49.58,26.37,73.49,41,37.5,22.93,73.79,48,108.75,74.64,36.15,27.55,72.87,54.54,107.5,84.02.66.57,63.89,56.79,80.09,72.27,23.15,23.15,46.8,45.67,69.02,69.74,30.49,33,59.13,67.85,86.82,103.22,27.7,35.38,56.72,69.69,83.34,105.97,1.37,1.86,2.72,3.73,4.08,5.6,8.74,12.1,17.23,24.38,25.46,36.81,8.25,12.45,16.25,25.05,24.06,37.77,3.95,6.43,7.83,12.91,11.66,19.4,3.71,6.28,7.81,12.52,11.07,19.03,7.51,12.97,14.96,26.01,21.31,39.61.39.83.93,3.15,1.97,3.36,1.27.24,2.61.39,3.95.46-3.37-14.9-5.7-30.22-6.87-45.82-.02-.2-.03-.39-.05-.59v-.02c-.56-7.69-.84-15.44-.84-23.26,0-4.64,9.47,8.46,9.67,3.87l.56-7.03c0-.05,2.8-4.82,2.81-4.87.19-4.32-3.03-5.96-2.62-10.22.88-10.17-.6-6.67,1.22-16.54v-6.42c1.4-7.47-.45-6.02,1.45-13.31,0-.03,5.4,19.69,2.16-1.03,0,0,.73-6.51.75-6.51.25-.96,2.07-3.58,2.34-4.55l1.92-5.62c.88-3.26.33-8.21,1.31-11.43l2.16-1.92c.15-.51.72-1.53.89-2.02.02-.07-.02-3.17,0-3.23.57-1.8,4.36-2.35,4.97-4.12,1.55-4.67,8.88-3.11,10.64-7.66h0c.25-.71,41.95,18.9,14.62,4.12.1-.3-11.38-9.82-11.25-10.12,5.8-14.56,16.54-13.6,24.37-26.99,0-.02-25.22-22.82-25.22-22.83.84-1.45,1.72-2.9,2.58-4.35.1-.15.2-.32.3-.49,1.64-2.68,3.32-5.36,5.04-7.98.02-.03.03-.07.03-.08,7.49-11.52,24.65-32.95,24.65-32.95.61-.71,2.53-2.94,2.73-3.15,3.86-4.39,7.84-8.69,11.96-12.86.03-.05.07-.08.12-.14,2.09-2.16,4.23-4.29,6.41-6.36,2.16-2.08,4.35-4.13,6.58-6.14.32-.3.64-.61.98-.89.05-.05.08-.08.14-.1l.02-.02c2.21-2.01,4.44-3.95,6.71-5.9.2-.17.39-.34.59-.49.57-.49,1.15-.96,1.72-1.42,2.88-2.45,5.82-4.79,8.79-7.09.15-.12.3-.24.45-.35,10.21-7.9,20.94-15.17,32.09-21.78.03-.02.07-.03.08-.05,1.52-.89,3.05-1.77,4.59-2.65h.02c.3-.19.61-.35.93-.52.54-.32,1.1-.64,1.65-.93.02,0,.02-.02.03-.02h.02s.02-.02.03-.02h.02s.03-.02.05-.02c.02-.02.05-.02.07-.03,7.25-4.08,14.7-7.81,22.3-11.3.02-.02.05-.02.07-.03.02,0,.03-.02.05-.02,4.57-2.08,9.21-4.05,13.9-5.9.15-.07.3-.14.46-.19.52-.22,1.03-.42,1.55-.61h.02s.02-.02.03-.02c9.38-3.66,18.98-6.88,28.78-9.63,3.44-.96,6.9-1.87,10.39-2.73h.02c.74-.17,2.25.92,3,.75,8.5-3.9,16.24-9.07,24.74-12.97,5.62-2.6,11.25-5.18,16.85-7.79,2.33-1.08,6.78-4.34,9.3-4.34,6.17-2.87,12.37-5.75,18-9.57.07-.05.15-.1.22-.15,1.23-.84,2.45-1.79,3.16-3.09.44-.81.59-1.52.52-2.14Z"/>
    </clipPath>
  </defs>
  <g id="Layer_1-2" data-name="Layer 1">
    <g>
      <g>
        <g>
          <path class="cls-1" d="M2007.44,1161.17c.2-.34.39-.66.52-.89-.13.39-.32.67-.52.89Z"/>
          <path class="cls-1" d="M2004.88,1160.59c.27.07.52.22.74.44.15.14.29.3.4.51-.2-.03-.39-.14-.56-.29-.24-.17-.44-.39-.59-.66Z"/>
          <path class="cls-1" d="M2220.52,1224.38c-17.04-2.78-15.1-2.95-32.05-1.69-4.25,3.61-18.91,5.82-18.56-1.69.52-.52,1.3-7.79,5.06-12.65,18.17-23.42,17.98,12.45,37.12-4.22-1.69-.07-3.39.07-5.06-.02-2.83-2.38,16.8-7.47,12.67-1.67-1.57,2.21-3.78,1.45-5.92,1.69,1.72,7.46,13.36,8.37,19.13,12.08,13.5,8.72,3.51,7.85-3.95,9.85-4.27,1.35-7.09.78-8.44-1.69Z"/>
          <path class="cls-1" d="M2210.4,1121.47c-3,1.48-3,5.89-6.75,5.06-.54-.22-1.08-1.25-1.69-1.69l-1.69-3.36c2.24-.1,4.5.07,6.75-.02,1.11-.05,2.24.02,3.37,0Z"/>
          <path class="cls-1" d="M2293.07,1233.68c-1.45,3.17,2.95,2.48,4.12,4.22,2.99,4.47,4.13,10.85-2.45,11.79l-8.44-1.69c-15.34-6.71-6.14-12.64-6.98-17.46-.39-2.23-14.88-14.41-14.81-20.28,6.01-7.57,22.13-8.06,29.76-3.17,8.06,5.16-5.21,3.31-8.89,3.71-13.19,1.45,2.51,8.86,5.53,12.47,1.99,2.36-2.28,6.24,8.89,4.5-.56,3.21-5.65,3.54-6.73,5.9Z"/>
          <path class="cls-1" d="M2250.89,1366.1c.62,2.8.86,5.62,1.69,8.44-5.99-1.01-8.62-8.01-12.6-11.86-2.09-2.02-5.99-2.41-7.24-3.73-1.91-2.01-2.09-8.49-4-12.03-1.89-3.49-7.63-7.2-8.99-11.25-3.09-9.09-2.45-8.38-6.68-16.94-4.08-8.23-6.82-17.07-12.72-24.41-1.48-2.99,5.3-3.68,5.94-3.59.54.08,7,7.2,7.49,7.9,4.79,6.85,2.46,10.71,11.81,15.18,4.76,2.43,5.89,5.23,3.37,8.44.91,2.77.02,5.01,2.56,8.42,2.46,3.29,3.98,2.29,5.87,3.39,3.63,3.69,5.87,7.63,6.75,11.81,5.9,8.79,4.54,10.41,6.75,20.25Z"/>
          <path class="cls-1" d="M2128.51,1268.18c-3.31,5.16,4.61,11.88-13.04,8.11-5.58-1.18-12.67-7.57-18.04-8.94-5.15-1.32-14.93.27-18.2-2.88-2.28-2.23.19-16.23,1.28-19.84-6.63-3.26-10.59.2-15.02.74-8.08.98-16.74.37-24.41,1.06-14.8,1.35-27.06,15.88-41.54,9.16,11.02-5.84,13.46-2.35,21.92-12.65,2.43-2.97,4.79-2.02,3.37-6.75-.27-3.26.37-3.95,3.37-5.06.51-.27,1.5-2.6,3.8-3.71,2.11-1.03,9.06-2.62,9.48-3.29,1.03-1.57-.34-5.9.22-6.51.46-.51,10.63.32,13.97-.37,4.4-.89,9.18-6.01,13.56-5.9,8.3.19,6.53,5.92,9.04,8.1,3.39,2.95,13.51,4.82,17.85,7.04,2.29,1.18,13.58,7.73,8,11.4.47.05,2.72,2.97,4.88,1.55,1.55-1.05,3.42-7.76,1.84-9.99l6.77-2.51c-4.32-5.25-15.49-4.56-19.52-7.49-1.94-1.4-2.72-5.33-4.88-6.98-3.27-2.51-5.63.34-5.96-4.1-.34-4.62,10.11-1.72,12.15-.76,2.02.94,2.38,3.95,5.11,5.38,4.61,2.41,15.76,4.79,18.24,7.17,3.02,2.88-.37,6.78,1.47,9.77.94,1.54,3.88,2.01,5.01,3.86,3.42,5.6.66,13.38,12,12.53.3-11.22,1.06-4.4,5.13-5.96,8.59-3.29-5.06-6.6-3.32-10.81,19.47-11.78,12.08,3.95,13.56,6.38.35.59,3.04.83,4.02,1.91,4.07,4.5,6.77,8.89,13.97,9.9,5.42.76,6.85-2.97,9.38-2.82,3.05.2,6.85,4.91,12.11,4.88,4.84-.02,8.91-4.71,14.32-3.48-.44,3.86.76,8.71-.03,12.33-.3,1.38-2.99,1.18-3.85,3.24-2.21,5.31-.49,12.13-7.93,13.11-4.83.64-8.64-1.72-12.65-1.69-13.63.12-22.71,1.16-36.73-3.76-3.19-1.11-3.56-4.49-8.79-4.83-2.53-.17-10.65,1.5-11.91,3.46Z"/>
          <path class="cls-1" d="M2223.9,1123.16c-.32.81.96,3.02-1.08,3.48-3.64.83-8.57-1.86-12.42-1.79,3.85-3.1,8.82-1.35,13.5-1.69Z"/>
          <path class="cls-1" d="M2157.27,1143.4l-.84-1.67c1.67-.08,3.37.07,5.04-.02,2.8-.14,5.65.08,8.44,0,2.21,1.84-10.26,2.02-12.64,1.69Z"/>
          <g>
            <circle class="cls-12" cx="2143.76" cy="1380.04" r="314.59"/>
            <g>
              <path class="cls-17" d="M2333.83,1133.61l-1.69,5.06c-5.74-.91-12.67-5.85-18.17-6.46-7.17-.81-11.22-.78-18.95-1.97-5.43-.84-8.55-2.92-12.57-3.46-9.23-1.27-20.35.83-29.59,1.75l1.7-5.03-13.51-1.69.81,6.77c-3.39-2.14-8.52-.86-11.37-1.74-1.75-.54-2.04-3.88-5.01-5.47-3.61-1.91-9.13-2.04-13.11-2.95-2.75,1.08-5.58,1.21-6.75-1.69-10.43-2.36-25.49-6.01-35.43-6.75-2.23-.17-4.5.12-6.75,0-2.23-.12-4.52-.03-6.75,0-9.62.19-15.99,1.03-25.31,1.69-2.33,2.99-8.08,1.59-11.79,1.69-1.13.03-2.28-.1-3.37,0-1.59,2.46-4.07,3.05-6.75,3.37-1.91.24-4.81.19-6.75,0,3.17,2.04,2.51,4.32,0,6.75-9.82,4.25-17.24,12.38-28.68,13.5-10.43,5.77-8.77,2.29-16.87,11.81,4.84,6.76.84,10.97,12.16,9.75,14.66-1.59,12.72-11.78,23.26,3.75,2.16,3.17,1.16,6.38,6.75,5.06.3-1.81,2.85-2.63,3.37-3.37,2.04-1.28,4.86-1.86,8.44-1.69,9.7-3.96,1.48-4.77,4.03-8.5,3.74-5.43,16.6.88,3.78-9.95-5.87-4.96,12.84-7.93,14.63-8.87,5.2-2.72,2.62-6.65,11.29-8.1,1.43-3.09,7.96-2.53,10.12,0,.19.84,3.26,1.08-1.13,3.07-2.8,1.27-16.62,4.88-17.21,5.55-4.67,5.4,3.24,15.54,11.59,11.64,1.65,5.42-9.84,3.43-5.06,6.73v1.69c-6.93-.69-6.85,11.78-14.78,13.16-3.88.69-6.63-1.57-9.53-1.21-9.23,1.11-9.92,1.75-19.54,1.55-6.39-.14-14.83,7.64-16.89-2.56-.12-.61,2.16-.71,3.17-1.81,0-.59.07-1.38.22-2.38-.91-.66-1.5-3.36-2.75-3.41-7.39-.24-15.94,6.11-7.41,12.69-4.42,3.29-10.43,3.26-16.28,5.62-6.04,2.43-13.38,8.33-19.11,12.1-4.13-4.83-10.22-11.59-18.17-15.1-1.74-3.16-4.45-8.23-3.91-10.68-1.27-.17-2.35-1.13-3.22-2.9-.44,1.94-2.4,2.4-3.37,3.37,2.35,2.28,1.32,3.19-1.69,1.69-.14.39-.32.67-.52.89.2-.34.39-.66.52-.89-.35-.37-1.79-.94-2.67-1.32h-.02c-.41-.19-.68-.3-.69-.37l-1.47,2.92-.22.46c1,.17,2.28,1.33,3.37,1.69,2.56.93,3.61,1.87,3.22,2.85,4.2.71,11.03,5.52,10.68,8.4-7.39,6.58-10,11.32,3.44,7.86,5.57-1.75,9.35-.81,11.34,2.82-1.86,1-3.73,4.99-8.25,5.84-2.16.4-6.16-1.35-6.93-.76-.46.34.34,2.6,0,3.36-2.7.1-6.98-1.05-8.44,1.69-1.11-.02-2.24,0-3.37,0,.02.02-.02.1-.07.24-.19.68-.42,1.21-.69,1.6,0,0-.02,0-.02.02-.29.91-.35,1.91.62,2.41,8.54,4.47,8.45-1,15.34,10.92,1.64,2.97,2.31,5.47-1.69,5.06-.29-.3-5.1,2.94-7.68,3.27-5.21.69-10.71-.27-15.94.1-1.55,2.77-6.34,4.4-8.44,1.69-4.67,2.08-7.41,1.97-3.37,8.44,1.11,2.18,0,4.99-3.37,8.44-.57,3.36-.1,2.73,0,5.06.86,3.05,4.02,5.25,6.75,6.75,1.27.91,5.26,1.27,6.75,3.37-.81,1.53-.29,4.74-2.6,8.35-3.86,6.02-14.07,9.75-17.44,16.31-2.04,4-1.3,7.98-3.48,11.69-2.94,5.01-12.2,7.88-16.06,12.64-1.92,2.38-11.56,21.97-12.25,24.83-1.91,7.93,1.96,15.01,1.25,23.16-.47,5.26-4.89,11.3-4.76,13.23.05.76,3.61,13.9,3.91,14.59.66,1.47,5.65,5.94,7.57,8.47,3.66,4.84,7.42,11.15,10.9,15.23,1.37,1.6,16.72,15.45,17.8,15.94,7.54,3.48,13.06-2.67,19.4-2.58,4.88.05,8.92,4.62,14.31,3.46,5.94-5.52,19.62-9.6,27.87-9.25,7.79.34,1.91,7.41,5.75,10.21,4.32,3.14,15.45-2.78,21.36,3.98,6.04,6.93-4.08,17.73-2.4,25.88,1.72,8.23,12.6,14.21,15.62,19.91,1.28,2.43,9.58,26.99,9.4,28.56.93,12.84-9.8,17.26-8.33,31.03,1.53,14.44,19.86,22.39,16.77,39.83,5.75,8.49,14.59,16.33,18.56,25.31,2.87,6.53-1.8,12.27,10.98,11.96,5.47-.12,8.42-3.29,11.86-3.49,2.8-.15,5.48,1.79,8.28,1.62,7.69-.46,18.2-5.85,24.53-10.09,5.21-3.48,19.76-13.56,19.67-19.44-.03-2.16-2.77-4.4-2.77-5.04.05-1.52,22.02-6.36,16.84-19.38-2.4-1.4-6.55-5.26-4.74-8.18.35-.59,9.55-7.56,10.91-8.42,5.04-3.24,18.79-6.85,20.55-13.29,1.1-4.02-1.37-7.02-1.1-9.75.42-4.13,3.49-11.91,2.78-14.86-.61-2.5-4.67-4.1-6.06-7.51-1.05-2.56-3.93-18.39-2.99-20.55.42-.98,8.18-11.88,9.21-12.84,2.63-2.48,6.88-3.22,8.13-4.54,1.65-1.75,1.74-6.51,4.5-9.84,2.82-3.36,8.55-5.3,11.88-8.35,11.42-10.49,30.28-34.18,30.96-50.11.37-8.84-14.24.02-17.8.83-3.46.79-7.22.22-11,.81-2.87.46-6.44,6.43-10.51-2.21-1.32-2.78-.4-4.99-.88-6.65-5.99-1.01-8.62-8.01-12.6-11.86-2.09-2.02-5.99-2.41-7.24-3.73-1.91-2.01-2.09-8.49-4-12.03-1.89-3.49-7.63-7.2-8.99-11.25-3.09-9.09-2.45-8.39-6.68-16.94-4.08-8.23-6.82-17.07-12.72-24.41-1.48-2.99,5.3-3.68,5.94-3.59.54.08,7,7.2,7.49,7.9,4.79,6.85,2.46,10.71,11.81,15.18,4.76,2.43,5.89,5.23,3.37,8.44.91,2.77.02,5.01,2.56,8.42,2.46,3.29,3.98,2.29,5.87,3.39,3.63,3.69,5.87,7.63,6.75,11.81,5.9,8.79,4.54,10.41,6.75,20.25.62,2.8.86,5.62,1.69,8.44,8.52,1.45,9.85-3.09,15.18-5.06,4.88-1.82,11.68-1.6,16.85-6.75,1.99-3.1,3.68-3.66,5.06-1.69,9.9-3.02,5.4-5.45,7.86-6.8,2.97-1.64,9.31-.64,11.94-2.09,5.37-2.97,11.61-15.08,15.62-18.1-.35-1.48.15-2.43.98-2.65-.03-.66.88-1.55,2.4-2.41,1.75-1.33,3.76-2.28,5.03-4.22-1.1-2.01-3.69-2.88-5.03-4.22-5.69-1.37-14.75-5.37-11.81-11.81.35-1.38-.24-3.49,0-5.06-9.25,5.28-8.82,7.83-20.25,10.12-2.31.76-4.1,1.05-3.37-1.69,0-4.03-1.13-6.85-3.37-8.44-.79.02-2.43-1.59-3.37-1.69-3.27,0-10.31-8.49-8.42-11.81.08-.37-2.5-4.37-1.79-7.32.44-1.89,3.24-.89,3.46-1.11.22-2.7,4.5-2.83,5.06,0,1.11,2.23,2.58,3.59,3.37,5.06,3.46.89,8.37,6.5,10.12,10.12,1.89,1.18.66,1.92,5.06,3.37,8.32-3.07,12.82-2.51,13.5,1.69,2.85-1.75,5.63,2.16,5.06,5.06,6.33,3.22,13.53,2.48,20.25,3.37,1.11-2.55,4.18-2.7,5.06,0,4.23.49,8.82,1.23,13.5,1.69,3.53,1.99,6.87,6.31,5.06,10.12,3.21-2.02,8.45,1.35,6.75,5.06-1.15.14-3.42-.71-3.37.83,3.22,2.88,3.53,7.58,8.44,7.61,8.32-9.01,10.48,7.93,8.44,15.18,1.03,4.79,2.11,8.82,3.37,13.5,3.95,2.55,6.17,9.28,1.69,11.81.73,2.28,1.92,2.29,3.37,3.37.93.51.91,1.06,0,1.69,3.41.05,2.87,1.62.25,3.22.05.59.08,1.18.1,1.77v.03s0,.02.02.03c.45,1.96,1.18,4.77,1.32,5.06,1.92.42,3.48,1.1,4.62,2.06.57-.44,1.89-.59,3.81-.37-1.47-.47-1.43-1.03,0-1.69,1.94-5.48,3.59-5.94,5.06-13.5-3.05-3.32-2.31-6.17,1.69-3.37-.2-2.19.29-4.61,0-6.75-2.4,2.28-3.37,1.28-1.69-1.69.66-2.11.42-3.96,1.69-6.75,2.06-2.95,3.75-3.53,5.06-1.69,1.16-1.2,1.03-3.88,1.69-5.06-.46-1.69.67-3.95,3.37-6.75.89-.71,2.53-.98,3.37-1.69,1.45-1.23,3.34-4.69,3.37-6.75-.96-4.56,7.69-6.09,10.11-3.37,1.57,6.01,3.31,8.5,5.06,13.5.66,1.86,1.27,1.87,1.69,5.06.29,2.16-.19,4.55,0,6.75,2.63-6.6,11.96-.22,6.75,5.06-.35.49.08,6.58,0,8.44l4.96-1.66c-1.26-100.37-49.29-189.63-123.56-246.35.65,1.37-1.23,3.19-1.17,3.38ZM2007.45,1166.64c-.24-.17-.44-.39-.59-.66.27.07.52.22.74.44.15.14.29.3.41.51-.2-.03-.39-.14-.56-.29ZM2225.87,1128.55c-.32.81.96,3.02-1.08,3.48-3.64.83-8.57-1.86-12.42-1.79,3.85-3.1,8.82-1.35,13.5-1.69ZM2209,1126.86c1.11-.05,2.24.02,3.37,0-3,1.48-3,5.89-6.75,5.06-.54-.22-1.08-1.25-1.69-1.69l-1.69-3.36c2.24-.1,4.51.07,6.75-.02ZM2163.45,1147.1c2.8-.14,5.65.08,8.44,0,2.21,1.84-10.26,2.02-12.64,1.69l-.84-1.67c1.67-.08,3.37.07,5.04-.02ZM2212.34,1264.04c-.3,1.38-2.99,1.18-3.85,3.24-2.21,5.31-.49,12.13-7.93,13.11-4.82.64-8.64-1.72-12.65-1.69-13.63.12-22.71,1.16-36.73-3.76-3.19-1.11-3.56-4.49-8.79-4.83-2.53-.17-10.64,1.5-11.91,3.46-3.31,5.16,4.61,11.88-13.04,8.11-5.58-1.18-12.67-7.58-18.03-8.94-5.15-1.32-14.93.27-18.2-2.88-2.28-2.23.19-16.23,1.28-19.84-6.63-3.26-10.6.2-15.01.74-8.08.98-16.74.37-24.41,1.06-14.8,1.35-27.06,15.88-41.54,9.16,11.02-5.84,13.46-2.35,21.92-12.65,2.43-2.97,4.79-2.02,3.37-6.75-.27-3.26.37-3.95,3.37-5.06.51-.27,1.5-2.6,3.8-3.71,2.11-1.03,9.06-2.61,9.48-3.29,1.03-1.57-.34-5.9.22-6.51.46-.51,10.63.32,13.97-.37,4.4-.89,9.18-6.01,13.56-5.9,8.3.19,6.53,5.92,9.04,8.1,3.39,2.95,13.51,4.82,17.85,7.04,2.3,1.18,13.58,7.73,8,11.41.47.05,2.72,2.97,4.88,1.55,1.55-1.05,3.42-7.76,1.84-9.99l6.76-2.51c-4.32-5.25-15.49-4.55-19.52-7.49-1.94-1.4-2.72-5.33-4.88-6.98-3.27-2.51-5.63.34-5.96-4.1-.34-4.62,10.11-1.72,12.15-.76,2.02.94,2.38,3.95,5.11,5.38,4.61,2.41,15.76,4.79,18.24,7.17,3.02,2.88-.37,6.78,1.47,9.77.94,1.54,3.88,2.01,5.01,3.86,3.43,5.6.66,13.38,11.99,12.54.3-11.22,1.06-4.4,5.13-5.96,8.59-3.29-5.06-6.6-3.32-10.81,19.47-11.78,12.08,3.95,13.56,6.38.35.59,3.04.83,4.02,1.91,4.07,4.5,6.76,8.89,13.97,9.9,5.42.76,6.85-2.97,9.38-2.82,3.05.2,6.85,4.91,12.11,4.88,4.84-.02,8.91-4.71,14.32-3.48-.44,3.86.76,8.7-.03,12.33ZM2230.94,1231.46c-4.27,1.35-7.09.78-8.44-1.69-17.04-2.78-15.1-2.95-32.05-1.69-4.25,3.61-18.91,5.82-18.56-1.69.52-.52,1.3-7.79,5.06-12.65,18.17-23.42,17.98,12.45,37.12-4.22-1.69-.07-3.39.07-5.06-.02-2.83-2.38,16.8-7.47,12.67-1.67-1.57,2.21-3.78,1.45-5.92,1.69,1.72,7.46,13.36,8.37,19.13,12.08,13.5,8.72,3.51,7.85-3.95,9.85ZM2295.05,1239.07c-1.45,3.17,2.95,2.48,4.12,4.22,2.99,4.47,4.13,10.85-2.45,11.79l-8.44-1.69c-15.34-6.71-6.14-12.64-6.98-17.46-.39-2.23-14.88-14.41-14.81-20.28,6.01-7.57,22.13-8.06,29.76-3.17,8.06,5.16-5.21,3.31-8.89,3.71-13.19,1.45,2.51,8.86,5.53,12.47,1.99,2.36-2.28,6.24,8.89,4.5-.56,3.21-5.65,3.54-6.73,5.9Z"/>
              <path class="cls-17" d="M2295.01,1104.54c-.43-.24-.86-.48-1.3-.72.43.24.86.48,1.3.72Z"/>
              <path class="cls-17" d="M2301.09,1107.96c-.79-.46-1.59-.9-2.39-1.35.79.45,1.59.9,2.39,1.35Z"/>
            </g>
          </g>
          <polygon class="cls-17" points="1999.98 1184.13 1997.73 1187.88 1996.61 1193.87 1984.61 1197.62 1981.98 1197.62 1980.86 1193.87 1983.48 1189.75 1982.73 1187.88 1986.86 1184.5 1989.48 1181.13 1994.73 1178.5 1998.86 1180 1999.61 1181.5 2001.34 1182.77 1999.98 1184.13"/>
          <path class="cls-17" d="M1976.03,1153.95s-5.76,3.37-10.26,5.2c-4.5,1.83-14.06,6.19-15.04,6.19s-1.55.28-3.8-.14-2.95-.42-3.23-2.11c-.28-1.69-.56-3.09.28-3.8.84-.7,1.69-2.81,1.69-2.81,0,0,.7.14,3.66-.14,2.95-.28,5.34-1.12,7.17-2.11,1.83-.98,2.81-1.83,5.06-2.67,2.25-.84,2.95-1.12,4.92-2.11,1.97-.98,1.55-.84,3.66-1.41,2.11-.56-1.41-2.11,3.8-.42,5.2,1.69,6.33,2.95,6.33,2.95,0,0-1.27,1.27-1.97,2.11s-3.37,1.55-3.37,1.55"/>
          <path class="cls-17" d="M1951.85,1148.04l2.95-2.81,2.39-6.05,14.9-10.26-1.69-1.83s-25.73,18-25.31,18.28,1.83,2.95,1.83,2.95h2.95l1.97-.28Z"/>
          <path class="cls-17" d="M2102.28,1099.07l10.68.37s5.25.19,6.75-2.06c1.5-2.25,1.31-2.62,3.56-3.19s3.19-.94,5.81-.37c2.62.56,3.94,2.25,3.94,2.25,0,0,.75,1.31,3,.75,2.25-.56,4.87-.37,7.5-.94s3.56-.75,3.56-.75l-6.75-1.69,3.75-1.5,13.68-1.31.37-3.37-6.19-1.12-30.93,1.5-33.37,2.62s0,4.12-.56,4.31,3.56,2.25,3.56,2.25"/>
        </g>
        <g>
          <path class="cls-22" d="M341.67,2272.76c-34.86,26.02-83.67,41.64-138.58,41.64s-105.03-16.05-139.46-42.07c-42.27-31.66-63.63-73.3-63.63-124.48s21.79-91.95,64.5-124.04c35.3-26.46,84.55-42.51,138.58-42.51s103.28,16.05,138.15,42.51c42.27,32.09,64.06,74.17,64.06,124.04s-21.35,93.25-63.63,124.91ZM303.75,2058.5c-25.28-18.22-61.01-29.49-100.67-29.49-88.03,0-148.61,50.31-148.61,118.84s57.96,118.84,148.61,118.84,147.74-48.58,147.74-118.84c0-36.43-15.69-66.36-47.07-89.34Z"/>
          <path class="cls-13" d="M791.4,2305.29l-85.42-119.7h-159.5v119.7h-52.3v-314.01h248.84c66.24,0,106.34,38.17,106.34,98.89,0,55.52-34.87,85.01-81.93,92.82l84.55,122.31h-60.58ZM795.76,2090.16c0-34.7-21.35-51.61-65.37-51.61h-183.91v99.76h188.7c39.22,0,60.58-17.35,60.58-48.14Z"/>
          <path class="cls-23" d="M1070.75,2038.55v266.73h-52.3v-266.73h-150.79v-47.27h353.87v47.27h-150.79Z"/>
          <path class="cls-11" d="M1581.49,2305.29v-139.22h-252.76v139.22h-52.3v-314.01h52.3v127.51h252.76v-127.51h52.3v314.01h-52.3Z"/>
          <path class="cls-29" d="M2064.35,2272.76c-34.86,26.02-83.67,41.64-138.58,41.64s-105.03-16.05-139.46-42.07c-42.27-31.66-63.63-73.3-63.63-124.48s21.79-91.95,64.5-124.04c35.3-26.46,84.55-42.51,138.58-42.51s103.28,16.05,138.15,42.51c42.27,32.09,64.06,74.17,64.06,124.04s-21.35,93.25-63.63,124.91ZM2026.44,2058.5c-25.28-18.22-61.01-29.49-100.67-29.49-88.03,0-148.61,50.31-148.61,118.84s57.96,118.84,148.61,118.84,147.74-48.58,147.74-118.84c0-36.43-15.69-66.36-47.07-89.34Z"/>
          <path class="cls-27" d="M2521.93,2305.29v-139.22h-252.76v139.22h-52.3v-314.01h52.3v127.51h252.76v-127.51h52.3v314.01h-52.3Z"/>
          <path class="cls-27" d="M3004.79,2272.76c-34.86,26.02-83.67,41.64-138.58,41.64s-105.03-16.05-139.46-42.07c-42.27-31.66-63.63-73.3-63.63-124.48s21.79-91.95,64.5-124.04c35.3-26.46,84.55-42.51,138.58-42.51s103.28,16.05,138.15,42.51c42.27,32.09,64.06,74.17,64.06,124.04s-21.35,93.25-63.63,124.91ZM2966.87,2058.5c-25.28-18.22-61.01-29.49-100.67-29.49-88.03,0-148.61,50.31-148.61,118.84s57.96,118.84,148.61,118.84,147.74-48.58,147.74-118.84c0-36.43-15.69-66.36-47.07-89.34Z"/>
          <path class="cls-27" d="M3334.24,2314.83c-110.69,0-179.11-47.27-179.11-111.03v-212.52h52.3v199.94c0,48.58,43.58,75.9,126.82,75.9s125.95-27.32,125.95-75.9v-199.94h52.3v212.52c0,64.19-67.99,111.03-178.24,111.03Z"/>
          <path class="cls-27" d="M3749.11,2029.44c-65.37,0-99.8,16.48-99.8,42.5,0,14.31,9.15,23.85,27.46,30.36,34.43,12.14,86.29,8.24,150.35,16.48,78.44,9.97,115.92,36.87,115.92,89.34,0,65.92-60.14,104.53-172.14,104.53-80.19,0-142.07-16.91-187.83-52.91l28.76-37.74c50.55,30.8,101.98,45.11,159.5,45.11,74.96,0,115.05-21.68,115.05-55.52,0-44.67-53.6-44.67-146.43-50.74-97.18-6.5-145.99-21.68-145.99-81.97s56.65-95.42,159.07-95.42c67.98,0,125.07,15.61,170.83,46.4l-31.81,35.13c-47.07-23.85-93.26-35.56-142.94-35.56Z"/>
          <path class="cls-27" d="M4024.96,2305.29v-314.01h318.14v47.27h-265.84v80.24h184.78v47.27h-184.78v91.95h278.04v47.27h-330.34Z"/>
        </g>
      </g>
      <g>
        <g>
          <g>
            <g>
              <path class="cls-31" d="M2143.54,662.69h.37c-45.16,27.26-99,65.49-136.77,94.38-48.2,36.8-94.49,76.09-138.95,117.35-74.64,69.27-145.02,143.4-207.85,223.61-15.13,19.33-30,38.87-44.32,58.79-25.64,35.65-49.97,72.31-71.99,110.34-21.95,37.82-41.64,77-58.14,117.51-7.81,19.18-17.29,37.71-28.5,55.17-25.02,38.92-58.73,71.85-98.51,95.54-46.87,27.94-100.7,43.76-155.23,45.59-55.72,1.87-110.91-12.82-159.73-39.39-6.98-2.82-13.78-8.01-20.06-12.06-9.06-5.84-17.83-12.13-26.27-18.84-20.13-15.99-38.41-34.4-53.94-54.93-2.94-3.9-5.79-7.88-8.54-11.91-.61-.88-1.22-1.79-1.82-2.7-.47-.71-.94-1.42-1.42-2.16-31.65-48.6-48.35-104.57-49.6-162.48-1.18-53.85,11.07-107.06,34.23-155.53,13.68-28.63,32.73-54.54,55.25-76.8,16.01-15.84,33.94-28.22,52.65-40.42,1.67-1.01,3.29-2.11,4.94-3.15.29-.13.56-.32.83-.49,18.34-11.29,37.93-20.28,57.68-28.76,19.81-8.5,39.8-16.55,59.2-25.96,8.17-3.95,16.23-8.11,24.23-12.43,48.66-26.76,115.65-73.89,160.26-107.97,48.2-36.81,94.49-76.1,138.95-117.35,74.64-69.27,145.02-143.4,207.85-223.62,15.13-19.32,30-38.85,44.32-58.79,25.64-35.65,49.97-72.31,71.99-110.32,8.08-13.92,15.84-28.01,23.25-42.3-3.46,19.22-5.28,39.02-5.28,59.23,0,182.74,148.16,330.9,330.9,330.9Z"/>
              <path class="cls-4" d="M2422.17,461.06c-13.68,28.61-32.73,54.53-55.25,76.8-16.01,15.82-33.94,28.21-52.65,40.41-1.67,1.01-3.29,2.13-4.94,3.15-.29.13-.56.34-.83.51-18.34,11.29-37.93,20.28-57.68,28.76-8.39,3.59-16.8,7.12-25.19,10.7-11.44,4.86-22.83,9.84-34.01,15.27-8.17,3.96-16.23,8.11-24.23,12.43-7.44,4.08-15.32,8.65-23.47,13.58-8.17-4.93-16.04-9.5-23.5-13.6-8-4.32-16.06-8.49-24.23-12.43-11.15-5.42-22.51-10.38-33.91-15.23-8.42-3.58-16.87-7.12-25.29-10.73-19.76-8.49-39.34-17.48-57.68-28.76-.27-.17-.54-.35-.83-.49-1.65-1.05-3.27-2.14-4.94-3.15-18.71-12.2-36.64-24.58-52.65-40.42-22.52-22.25-41.57-48.17-55.25-76.8-23.16-48.47-35.41-101.68-34.23-155.53,1.25-57.92,17.95-113.88,49.6-162.48.47-.74.94-1.45,1.42-2.16.61-.91,1.21-1.82,1.82-2.7,2.75-4.03,5.6-8.01,8.54-11.91,13.89-18.37,30-35.04,47.66-49.82.1-.08.2-.15.3-.24,37.1-29.59,72.68-47.04,100.31-57.24.22-.1.44-.17.64-.24,17.36-6.14,35.21-10.81,53.35-13.82,1.23-.2,2.45-.4,3.68-.59.22-.05.46-.08.69-.1,11.37-1.65,22.83-2.7,34.33-3.14.17,0,.34-.02.51-.02.25,0,.52-.02.78-.03.44-.02.86-.02,1.3-.03,1-.03,1.99-.07,2.97-.07.12-.02.24-.02.35-.02h.19c.78-.02,1.57-.02,2.36-.02.57-.02,1.13-.02,1.7-.02,5.13,0,10.22.12,15.29.37.17,0,.35.02.52.03,9.62.51,19.18,1.48,28.68,2.94.24.03.47.07.69.1,36.93,5.67,72.75,18.19,105.68,36.12,6.98,2.8,13.78,8,20.06,12.05,9.06,5.85,17.83,12.13,26.27,18.84,20.13,16.01,38.41,34.42,53.94,54.95,2.94,3.9,5.79,7.86,8.54,11.89.61.89,1.21,1.81,1.82,2.7.47.73.94,1.43,1.42,2.16,31.65,48.6,48.35,104.57,49.6,162.5,1.18,53.83-11.07,107.05-34.23,155.53Z"/>
              <g class="cls-32">
                <path class="cls-14" d="M995.69,1509.13l937.56-1002.23-88.25-332.77s-568.78,344.27-573.28,351.02c-4.5,6.75-445.39,515.12-449.89,524.12-4.5,9-150.71,328.42-157.46,384.66-6.75,56.24,217.84,147.19,217.84,147.19"/>
              </g>
            </g>
            <g>
              <path class="cls-10" d="M2143.54,662.69h.37c-45.16,27.26-99,65.49-136.77,94.38-48.2,36.8-94.49,76.09-138.95,117.35-74.64,69.27-145.02,143.4-207.85,223.61-15.13,19.33-30,38.87-44.32,58.79-25.64,35.65-49.97,72.31-71.99,110.34-21.95,37.82-41.64,77-58.14,117.51-7.81,19.18-17.29,37.71-28.5,55.17-25.02,38.92-58.73,71.85-98.51,95.54-46.87,27.94-100.7,43.76-155.23,45.59-55.72,1.87-110.91-12.82-159.73-39.39-6.98-2.82-13.78-8.01-20.06-12.06-9.06-5.84-17.83-12.13-26.27-18.84-20.13-15.99-38.41-34.4-53.94-54.93-2.94-3.9-5.79-7.88-8.54-11.91-.61-.88-1.22-1.79-1.82-2.7-.47-.71-.94-1.42-1.42-2.16-31.65-48.6-48.35-104.57-49.6-162.48-1.18-53.85,11.07-107.06,34.23-155.53,13.68-28.63,32.73-54.54,55.25-76.8,16.01-15.84,33.94-28.22,52.65-40.42,1.67-1.01,3.29-2.11,4.94-3.15.29-.13.56-.32.83-.49,18.34-11.29,37.93-20.28,57.68-28.76,19.81-8.5,39.8-16.55,59.2-25.96,8.17-3.95,16.23-8.11,24.23-12.43,48.66-26.76,115.65-73.89,160.26-107.97,48.2-36.81,94.49-76.1,138.95-117.35,74.64-69.27,145.02-143.4,207.85-223.62,15.13-19.32,30-38.85,44.32-58.79,25.64-35.65,49.97-72.31,71.99-110.32,8.08-13.92,15.84-28.01,23.25-42.3-3.46,19.22-5.28,39.02-5.28,59.23,0,182.74,148.16,330.9,330.9,330.9Z"/>
              <path class="cls-16" d="M2422.17,461.06c-13.68,28.61-32.73,54.53-55.25,76.8-16.01,15.82-33.94,28.21-52.65,40.41-1.67,1.01-3.29,2.13-4.94,3.15-.29.13-.56.34-.83.51-18.34,11.29-37.93,20.28-57.68,28.76-8.39,3.59-16.8,7.12-25.19,10.7-11.44,4.86-22.83,9.84-34.01,15.27-8.17,3.96-16.23,8.11-24.23,12.43-7.44,4.08-15.32,8.65-23.47,13.58-8.17-4.93-16.04-9.5-23.5-13.6-8-4.32-16.06-8.49-24.23-12.43-11.15-5.42-22.51-10.38-33.91-15.23-8.42-3.58-16.87-7.12-25.29-10.73-19.76-8.49-39.34-17.48-57.68-28.76-.27-.17-.54-.35-.83-.49-1.65-1.05-3.27-2.14-4.94-3.15-18.71-12.2-36.64-24.58-52.65-40.42-22.52-22.25-41.57-48.17-55.25-76.8-23.16-48.47-35.41-101.68-34.23-155.53,1.25-57.92,17.95-113.88,49.6-162.48.47-.74.94-1.45,1.42-2.16.61-.91,1.21-1.82,1.82-2.7,2.75-4.03,5.6-8.01,8.54-11.91,13.89-18.37,30-35.04,47.66-49.82.1-.08.2-.15.3-.24,37.1-29.59,72.68-47.04,100.31-57.24.22-.1.44-.17.64-.24,17.36-6.14,35.21-10.81,53.35-13.82,1.23-.2,2.45-.4,3.68-.59.22-.05.46-.08.69-.1,11.37-1.65,22.83-2.7,34.33-3.14.17,0,.34-.02.51-.02.25,0,.52-.02.78-.03.44-.02.86-.02,1.3-.03,1-.03,1.99-.07,2.97-.07.12-.02.24-.02.35-.02h.19c.78-.02,1.57-.02,2.36-.02.57-.02,1.13-.02,1.7-.02,5.13,0,10.22.12,15.29.37.17,0,.35.02.52.03,9.62.51,19.18,1.48,28.68,2.94.24.03.47.07.69.1,36.93,5.67,72.75,18.19,105.68,36.12,6.98,2.8,13.78,8,20.06,12.05,9.06,5.85,17.83,12.13,26.27,18.84,20.13,16.01,38.41,34.42,53.94,54.95,2.94,3.9,5.79,7.86,8.54,11.89.61.89,1.21,1.81,1.82,2.7.47.73.94,1.43,1.42,2.16,31.65,48.6,48.35,104.57,49.6,162.5,1.18,53.83-11.07,107.05-34.23,155.53Z"/>
              <g>
                <path class="cls-28" d="M2167.37,647.1c-.37,3.16,2.6.59.02,1.99-48.66,26.76-115.65,73.89-160.26,107.97-48.2,36.81-94.49,76.1-138.95,117.35-74.64,69.27-145.02,143.4-207.85,223.62-15.13,19.32-30,38.85-44.32,58.8-25.64,35.65-49.97,72.31-71.99,110.32-21.95,37.82-41.64,77-58.14,117.51-7.81,19.2-17.29,37.72-28.5,55.17-25.02,38.94-58.73,71.85-98.51,95.56-46.87,27.92-100.7,43.76-155.23,45.59-55.72,1.87-110.91-12.82-159.73-39.41-6.98-2.8-13.78-8-20.06-12.05-9.06-5.85-17.83-12.13-26.27-18.84-20.13-16.01-38.41-34.42-53.94-54.95-2.94-3.9-5.79-7.86-8.54-11.89-.61-.89-1.21-1.8-1.82-2.7-.47-.72-.94-1.43-1.42-2.16-31.65-48.6-48.35-104.57-49.6-162.5-1.18-53.84,11.07-107.05,34.23-155.53,13.68-28.61,32.73-54.53,55.25-76.8,16.01-15.83,33.94-28.21,52.65-40.41,1.67-1.01,3.29-2.13,4.94-3.16.29-.14.56-.34.83-.51,18.34-11.29,37.93-20.28,57.68-28.76,19.81-8.5,39.8-16.55,59.2-25.96,25.2-12.23,49.58-26.37,73.49-41,37.5-22.93,73.79-48,108.75-74.64,36.15-27.55,72.87-54.54,107.5-84.02.66-.57,63.89-56.79,80.09-72.27,23.15-23.15,46.8-45.67,69.02-69.74,30.49-33,59.13-67.85,86.82-103.22,27.7-35.38,56.72-69.69,83.34-105.97,1.37-1.86,2.72-3.73,4.08-5.6,8.74-12.1,17.23-24.38,25.46-36.81,8.25-12.45,16.25-25.05,24.06-37.77,3.95-6.43,7.83-12.91,11.66-19.4,3.71-6.28,7.81-12.52,11.07-19.03,7.51-12.97,14.96-26.01,21.31-39.61.39-.83.93-3.15,1.97-3.36,1.27-.24,2.61-.39,3.95-.46-3.37,14.9-5.7,30.22-6.87,45.82-.02.2-.03.39-.05.59v.02c-.56,7.69-.84,15.44-.84,23.26,0,4.64,9.47-8.46,9.67-3.87l.56,7.03c0,.05,2.8,4.82,2.81,4.87.19,4.32-3.03,5.96-2.62,10.22.88,10.17-.6,6.67,1.22,16.54v6.42c1.4,7.47-.45,6.02,1.45,13.31,0,.03,5.4-19.69,2.16,1.03,0,0,.73,6.51.75,6.51.25.96,2.07,3.58,2.34,4.55l1.92,5.62c.88,3.26.33,8.21,1.31,11.43l2.16,1.92c.15.51.72,1.53.89,2.02.02.07-.02,3.17,0,3.23.57,1.8,4.36,2.35,4.97,4.12,1.55,4.67,8.88,3.11,10.64,7.66h0c.25.71,41.95-18.9,14.62-4.12.1.3-11.38,9.82-11.25,10.12,5.8,14.56,16.54,13.6,24.37,26.99,0,.02-25.22,22.82-25.22,22.83.84,1.45,1.72,2.9,2.58,4.35.1.15.2.32.3.49,1.64,2.68,3.32,5.36,5.04,7.98.02.03.03.07.03.08,7.49,11.52,24.65,32.95,24.65,32.95.61.71,2.53,2.94,2.73,3.15,3.86,4.39,7.84,8.69,11.96,12.86.03.05.07.08.12.14,2.09,2.16,4.23,4.29,6.41,6.36,2.16,2.08,4.35,4.13,6.58,6.14.32.3.64.61.98.89.05.05.08.08.14.1l.02.02c2.21,2.01,4.44,3.95,6.71,5.9.2.17.39.34.59.49.57.49,1.15.96,1.72,1.42,2.88,2.45,5.82,4.79,8.79,7.09.15.12.3.24.45.35,10.21,7.9,20.94,15.17,32.09,21.78.03.02.07.03.08.05,1.52.89,3.05,1.77,4.59,2.65h.02c.3.19.61.35.93.52.54.32,1.1.64,1.65.93.02,0,.02.02.03.02h.02s.02.02.03.02h.02s.03.02.05.02c.02.02.05.02.07.03,7.25,4.08,14.7,7.81,22.3,11.3.02.02.05.02.07.03.02,0,.03.02.05.02,4.57,2.08,9.21,4.05,13.9,5.9.15.07.3.14.46.19.52.22,1.03.42,1.55.61h.02s.02.02.03.02c9.38,3.66,18.98,6.88,28.78,9.63,3.44.96,6.9,1.87,10.39,2.73h.02c.74.17,2.25-.92,3-.75,8.5,3.9,16.24,9.07,24.74,12.97,5.62,2.6,11.25,5.18,16.85,7.79,2.33,1.08,6.78,4.34,9.3,4.34,6.17,2.87,12.37,5.75,18,9.57.07.05.15.1.22.15,1.23.84,2.45,1.79,3.16,3.09.44.81.59,1.52.52,2.14Z"/>
                <g class="cls-15">
                  <path class="cls-20" d="M995.69,1509.13l937.56-1002.23-88.25-332.77s-568.78,344.27-573.28,351.02c-4.5,6.75-445.39,515.12-449.89,524.12-4.5,9-150.71,328.42-157.46,384.66-6.75,56.24,217.84,147.19,217.84,147.19"/>
                </g>
              </g>
            </g>
          </g>
          <g class="cls-21">
            <path class="cls-25" d="M2365.63,94.75L963.45,1481.09h-295.61l51.74-388.14s449.89-659.09,530.87-740.07c80.98-80.98,744.57-438.64,771.56-438.64s211.45,20.25,344.17,20.25"/>
            <g class="cls-3">
              <path class="cls-9" d="M995.69,1509.13l937.56-1002.23-88.25-332.77s-568.78,344.27-573.28,351.02c-4.5,6.75-445.39,515.12-449.89,524.12-4.5,9-150.71,328.42-157.46,384.66-6.75,56.24,217.84,147.19,217.84,147.19"/>
            </g>
          </g>
        </g>
        <g>
          <g>
            <path class="cls-5" d="M3405.52,1276.45c-1.25,57.93-17.95,113.9-49.6,162.5-.47.73-.94,1.43-1.42,2.16-.61.89-1.21,1.81-1.82,2.7-2.75,4.03-5.6,8-8.54,11.89-15.52,20.53-33.81,38.94-53.94,54.95-8.44,6.71-17.21,12.99-26.27,18.84-6.28,4.05-13.07,9.25-20.06,12.05-48.82,26.59-104.01,41.28-159.73,39.41-54.53-1.82-108.36-17.66-155.23-45.59-39.78-23.7-73.49-56.62-98.51-95.56-11.2-17.44-20.68-35.97-28.49-55.17-16.5-40.51-36.19-79.68-58.14-117.51-22.02-38.01-46.34-74.67-71.99-110.32-14.32-19.94-29.19-39.48-44.32-58.79-62.83-80.22-133.21-154.35-207.85-223.62-44.45-41.25-90.75-80.54-138.95-117.35-37.77-28.87-91.61-67.08-136.76-94.36v-.02c-8.17-4.93-16.04-9.5-23.5-13.6-8-4.32-16.06-8.49-24.23-12.43-19.4-9.41-39.39-17.46-59.2-25.96-19.76-8.49-39.34-17.48-57.68-28.76-.27-.17-.54-.35-.83-.49-1.65-1.05-3.27-2.14-4.94-3.15-18.71-12.2-36.64-24.58-52.65-40.42-22.52-22.25-41.57-48.17-55.25-76.8-23.16-48.47-35.41-101.68-34.23-155.53,1.25-57.92,17.95-113.88,49.6-162.48.47-.74.94-1.45,1.42-2.16.61-.91,1.21-1.82,1.82-2.7,2.75-4.03,5.6-8.01,8.54-11.91,13.89-18.37,30-35.04,47.66-49.82.1-.08.2-.15.3-.24,37.1-29.59,72.68-47.04,100.31-57.24.22-.1.44-.17.64-.24,17.36-6.14,35.21-10.81,53.35-13.82,1.23-.2,2.45-.4,3.68-.59.22-.05.46-.08.69-.1,11.34-1.72,22.81-2.75,34.33-3.14.17,0,.34-.02.51-.02.25,0,.52-.02.78-.03.44-.02.86-.02,1.3-.03.68-.02,1.33-.05,2.01-.07.44-.02.88-.03,1.32-.02.05-.02.1-.02.14,0,.86-.03,1.72-.03,2.58-.02.34-.02.69-.02,1.03-.02h.61c.62,0,1.27,0,1.89.02.74,0,1.5,0,2.26.02.08,0,.17.02.25.02,1.45.02,2.92.05,4.37.1,11.93.4,23.82,1.47,35.61,3.19.24.03.47.07.69.1,41.89,6.19,82.52,20.58,118.92,42.3,39.78,23.69,73.49,56.62,98.51,95.54,11.2,17.46,20.68,35.99,28.49,55.17,10.11,24.82,21.41,49.14,33.72,72.95,7.76,15.05,15.91,29.91,24.41,44.56,22.02,38.03,46.34,74.69,71.99,110.34,14.32,19.92,29.19,39.46,44.32,58.79,62.83,80.2,133.21,154.33,207.85,223.61,44.45,41.27,90.75,80.56,138.95,117.35,44.61,34.1,111.6,81.23,160.26,107.97,8,4.32,16.06,8.47,24.23,12.43,19.4,9.41,39.39,17.46,59.2,25.96,19.76,8.49,39.34,17.48,57.68,28.76.27.17.54.37.83.51,1.65,1.03,3.27,2.14,4.94,3.15,18.71,12.2,36.64,24.58,52.65,40.41,22.52,22.27,41.57,48.18,55.25,76.8,23.16,48.49,35.41,101.7,34.23,155.53Z"/>
            <g class="cls-18">
              <path class="cls-26" d="M1944.8,72.87l937.56,1002.23-88.25,332.77s-568.78-344.27-573.28-351.02-445.39-515.12-449.89-524.12c-4.5-9-150.71-328.42-157.46-384.66C1606.74,91.83,1831.32.88,1831.32.88"/>
            </g>
          </g>
          <g class="cls-19">
            <path class="cls-30" d="M3316.1,1492.26L1911.73,103.71l-293.41,2.2,51.74,388.14s449.89,659.09,530.87,740.07c80.98,80.98,744.57,438.64,771.56,438.64s211.45-20.25,344.17-20.25"/>
            <g class="cls-7">
              <path class="cls-9" d="M1944.8,72.87l937.56,1002.23-88.25,332.77s-568.78-344.27-573.28-351.02-445.39-515.12-449.89-524.12c-4.5-9-150.71-328.42-157.46-384.66C1606.74,91.83,1831.32.88,1831.32.88"/>
            </g>
          </g>
        </g>
        <g>
          <path class="cls-33" d="M2458.12,316.55c0,91.1-38.26,173.21-99.49,230.96-41.35,39.01-93.18,66.89-150.79,78.96-2.29.49-4.61.94-6.93,1.37-2.33.44-4.66.84-7,1.21-.78.13-1.57.25-2.35.37-.84.13-1.67.27-2.51.39-.07.02-.13.03-.22.03-1.64.24-3.27.46-4.91.67-1.67.22-3.36.42-5.04.61-5.04.57-10.12,1.01-15.23,1.33-1.7.1-3.41.2-5.13.29-1.7.07-3.42.13-5.15.19-.83.03-1.64.07-2.46.08-.83.02-1.65.03-2.48.05-1.65.02-3.31.03-4.96.03-5.42,0-10.81-.13-16.16-.4-.05.02-.1,0-.14,0-3.88-.22-7.74-.49-11.59-.83-.13.02-.29,0-.44-.03-2.62-.22-5.21-.49-7.81-.79-1.32-.15-2.63-.3-3.95-.47-2.61-.34-5.23-.71-7.83-1.11-1.3-.2-2.6-.4-3.9-.62-1.18-.19-2.34-.39-3.53-.61-.27-.03-.54-.08-.79-.15-1.15-.2-2.29-.42-3.44-.64-1.28-.24-2.56-.49-3.85-.76-1.59-.32-3.15-.66-4.72-1.01-1.45-.32-2.9-.66-4.35-1-1.18-.29-2.36-.57-3.54-.88-57.77-14.41-109.24-44.89-149.46-86.45-55.18-57.02-89.18-134.92-89.18-220.79C1828.79,141.73,1969.68,0,2143.47,0c84.03,0,160.37,33.13,216.81,87.14,60.28,57.66,97.85,139.13,97.85,229.41Z"/>
          <path class="cls-33" d="M2213.51,625.25l-69.61,37.44-77.93-39.26c.49.12.96.25,1.45.35,1.18.3,2.36.59,3.54.88,1.45.34,2.9.67,4.35,1,1.57.35,3.14.69,4.72,1.01,1.28.27,2.56.52,3.85.76,1.15.24,2.29.44,3.44.64.25.07.52.12.79.15,1.18.22,2.35.42,3.53.61,5.18.88,10.41,1.62,15.67,2.21,2.6.3,5.2.57,7.81.79.15.03.3.05.44.03,3.85.35,7.71.62,11.59.83.03,0,.08.02.14,0,5.35.29,10.75.42,16.16.42,1.65,0,3.31-.02,4.96-.05,5.1-.07,10.17-.27,15.22-.61,5.11-.32,10.19-.76,15.23-1.33,1.69-.19,3.37-.39,5.04-.61,1.64-.2,3.27-.44,4.91-.67.08,0,.15-.02.22-.03,6.33-.91,12.6-2.02,18.79-3.34,1.91-.37,3.78-.79,5.67-1.21Z"/>
        </g>
        <path class="cls-2" d="M2458.12,316.55c0,91.1-37.27,172.27-98.5,230.02l-216.16-230.02,216.17-229.29.64-.12c60.28,57.66,97.85,139.13,97.85,229.41Z"/>
        <path class="cls-8" d="M1828.8,316.55c0,91.1,37.27,172.27,98.5,230.02l216.16-230.02-216.17-229.29-.64-.12c-60.28,57.66-97.85,139.13-97.85,229.41Z"/>
        <path class="cls-6" d="M2359.63,546.57c-41.35,39.01-94.17,67.83-151.78,79.9,1.91-.37,3.78-.79,5.67-1.21l-69.61,37.44-77.93-39.26c.49.12.96.25,1.45.35-57.77-14.41-109.24-44.89-149.46-86.45l225.5-220.79,215.22,229.01.95,1.01Z"/>
      </g>
    </g>
  </g>
</svg>